# Blender v3.3.1 OBJ File: 'ammo crate.blend'
# www.blender.org
mtllib ammo crate.mtl
o Cube
v 0.498461 0.256015 -1.019963
v 0.498461 0.001053 -1.019963
v 0.498461 0.256015 1.019963
v 0.498461 0.001053 1.019963
v 0.430777 0.256015 -1.019963
v 0.430777 0.001053 -1.019963
v 0.430777 0.256015 1.019963
v 0.430777 0.001053 1.019963
vt 0.625000 0.500000
vt 0.875000 0.500000
vt 0.875000 0.750000
vt 0.625000 0.750000
vt 0.480349 0.193641
vt 0.480349 0.190361
vt 0.491596 0.190361
vt 0.491596 0.193641
vt 0.396062 0.172811
vt 0.396062 0.167039
vt 0.405106 0.167039
vt 0.405106 0.172811
vt 0.125000 0.500000
vt 0.375000 0.500000
vt 0.375000 0.750000
vt 0.125000 0.750000
vt 0.475836 0.193560
vt 0.475836 0.190214
vt 0.491495 0.190365
vt 0.489226 0.191690
vt 0.490420 0.193503
vt 0.490420 0.190266
vt 0.492737 0.190266
vt 0.492737 0.193503
vn 0.0000 1.0000 0.0000
vn 0.0000 0.0000 1.0000
vn -1.0000 0.0000 0.0000
vn 0.0000 -1.0000 0.0000
vn 1.0000 0.0000 0.0000
vn 0.0000 0.0000 -1.0000
usemtl basically_everything
s off
f 1/1/1 5/2/1 7/3/1 3/4/1
f 4/5/2 3/6/2 7/7/2 8/8/2
f 8/9/3 7/10/3 5/11/3 6/12/3
f 6/13/4 2/14/4 4/15/4 8/16/4
f 2/17/5 1/18/5 3/19/5 4/20/5
f 6/21/6 5/22/6 1/23/6 2/24/6
o Cube.001
v 0.498461 0.550422 -1.019963
v 0.498461 0.295460 -1.019963
v 0.498461 0.550422 1.019963
v 0.498461 0.295460 1.019963
v 0.430777 0.550422 -1.019963
v 0.430777 0.295460 -1.019963
v 0.430777 0.550422 1.019963
v 0.430777 0.295460 1.019963
vt 0.625000 0.500000
vt 0.875000 0.500000
vt 0.875000 0.750000
vt 0.625000 0.750000
vt 0.478761 0.193237
vt 0.478761 0.190889
vt 0.490008 0.190889
vt 0.490008 0.193237
vt 0.396062 0.172811
vt 0.396062 0.167039
vt 0.405106 0.167039
vt 0.405106 0.172811
vt 0.125000 0.500000
vt 0.375000 0.500000
vt 0.375000 0.750000
vt 0.125000 0.750000
vt 0.474901 0.191629
vt 0.474247 0.190783
vt 0.489906 0.190891
vt 0.493790 0.193051
vt 0.488831 0.193138
vt 0.488831 0.190821
vt 0.491148 0.190821
vt 0.491148 0.193138
vn 0.0000 1.0000 0.0000
vn 0.0000 0.0000 1.0000
vn -1.0000 0.0000 0.0000
vn 0.0000 -1.0000 0.0000
vn 1.0000 0.0000 0.0000
vn 0.0000 0.0000 -1.0000
usemtl basically_everything
s off
f 9/25/7 13/26/7 15/27/7 11/28/7
f 12/29/8 11/30/8 15/31/8 16/32/8
f 16/33/9 15/34/9 13/35/9 14/36/9
f 14/37/10 10/38/10 12/39/10 16/40/10
f 10/41/11 9/42/11 11/43/11 12/44/11
f 14/45/12 13/46/12 9/47/12 10/48/12
o Cube.002
v 0.498461 0.845848 -1.019963
v 0.498461 0.590886 -1.019963
v 0.498461 0.845848 1.019963
v 0.498461 0.590886 1.019963
v 0.430777 0.845848 -1.019963
v 0.430777 0.590886 -1.019963
v 0.430777 0.845848 1.019963
v 0.430777 0.590886 1.019963
vt 0.625000 0.500000
vt 0.875000 0.500000
vt 0.875000 0.750000
vt 0.625000 0.750000
vt 0.479245 0.193237
vt 0.479245 0.190889
vt 0.490492 0.190889
vt 0.490492 0.193237
vt 0.398096 0.171648
vt 0.396062 0.167039
vt 0.405106 0.167039
vt 0.405106 0.172811
vt 0.125000 0.500000
vt 0.375000 0.500000
vt 0.375000 0.750000
vt 0.125000 0.750000
vt 0.474732 0.193179
vt 0.474732 0.190783
vt 0.490391 0.190891
vt 0.490351 0.192567
vt 0.489316 0.193138
vt 0.489316 0.190821
vt 0.491633 0.190821
vt 0.491633 0.193138
vn 0.0000 1.0000 0.0000
vn 0.0000 0.0000 1.0000
vn -1.0000 0.0000 0.0000
vn 0.0000 -1.0000 0.0000
vn 1.0000 0.0000 0.0000
vn 0.0000 0.0000 -1.0000
usemtl basically_everything
s off
f 17/49/13 21/50/13 23/51/13 19/52/13
f 20/53/14 19/54/14 23/55/14 24/56/14
f 24/57/15 23/58/15 21/59/15 22/60/15
f 22/61/16 18/62/16 20/63/16 24/64/16
f 18/65/17 17/66/17 19/67/17 20/68/17
f 22/69/18 21/70/18 17/71/18 18/72/18
o Cube.003
v 0.498461 1.140255 -1.019963
v 0.498461 0.885293 -1.019963
v 0.498461 1.140255 1.019963
v 0.498461 0.885293 1.019963
v 0.430777 1.140255 -1.019963
v 0.430777 0.885293 -1.019963
v 0.430777 1.140255 1.019963
v 0.430777 0.885293 1.019963
vt 0.625000 0.500000
vt 0.875000 0.500000
vt 0.875000 0.750000
vt 0.625000 0.750000
vt 0.477902 0.193638
vt 0.477902 0.190329
vt 0.489149 0.190329
vt 0.489149 0.193638
vt 0.396062 0.172811
vt 0.399646 0.167354
vt 0.405106 0.167039
vt 0.403483 0.171479
vt 0.125000 0.500000
vt 0.375000 0.500000
vt 0.375000 0.750000
vt 0.125000 0.750000
vt 0.475641 0.191781
vt 0.473389 0.190180
vt 0.489047 0.190332
vt 0.492205 0.193411
vt 0.487972 0.193498
vt 0.487972 0.190232
vt 0.490290 0.190232
vt 0.490290 0.193498
vn 0.0000 1.0000 0.0000
vn 0.0000 0.0000 1.0000
vn -1.0000 0.0000 0.0000
vn 0.0000 -1.0000 0.0000
vn 1.0000 0.0000 0.0000
vn 0.0000 0.0000 -1.0000
usemtl basically_everything
s off
f 25/73/19 29/74/19 31/75/19 27/76/19
f 28/77/20 27/78/20 31/79/20 32/80/20
f 32/81/21 31/82/21 29/83/21 30/84/21
f 30/85/22 26/86/22 28/87/22 32/88/22
f 26/89/23 25/90/23 27/91/23 28/92/23
f 30/93/24 29/94/24 25/95/24 26/96/24
o Cube.004
v 0.450774 -0.012672 1.000000
v 0.450774 1.171109 1.000000
v 0.450774 -0.012672 -1.000000
v 0.450774 1.171109 -1.000000
v 0.476139 -0.012672 1.000000
v 0.476139 1.171109 1.000000
v 0.476139 -0.012672 -1.000000
v 0.476139 1.171109 -1.000000
vt 0.375000 0.000000
vt 0.625000 0.000000
vt 0.625000 0.250000
vt 0.375000 0.250000
vt 0.625000 0.500000
vt 0.375000 0.500000
vt 0.384626 0.170333
vt 0.385651 0.166678
vt 0.389190 0.166627
vt 0.390530 0.168532
vt 0.375000 0.750000
vt 0.625000 0.750000
vt 0.625000 1.000000
vt 0.375000 1.000000
vt 0.125000 0.500000
vt 0.125000 0.750000
vt 0.875000 0.500000
vt 0.875000 0.750000
vn -1.0000 0.0000 0.0000
vn 0.0000 0.0000 -1.0000
vn 1.0000 0.0000 0.0000
vn 0.0000 0.0000 1.0000
vn 0.0000 -1.0000 0.0000
vn 0.0000 1.0000 0.0000
usemtl basically_everything
s off
f 33/97/25 34/98/25 36/99/25 35/100/25
f 35/100/26 36/99/26 40/101/26 39/102/26
f 39/103/27 40/104/27 38/105/27 37/106/27
f 37/107/28 38/108/28 34/109/28 33/110/28
f 35/111/29 39/102/29 37/107/29 33/112/29
f 40/101/30 36/113/30 34/114/30 38/108/30
o Cube.005
v -0.329917 0.256015 1.019963
v -0.329917 0.001053 1.019963
v -0.329917 0.256015 -1.019963
v -0.329917 0.001053 -1.019963
v -0.262234 0.256015 1.019963
v -0.262234 0.001053 1.019963
v -0.262234 0.256015 -1.019963
v -0.262234 0.001053 -1.019963
vt 0.625000 0.500000
vt 0.875000 0.500000
vt 0.875000 0.750000
vt 0.625000 0.750000
vt 0.480349 0.193641
vt 0.480349 0.190361
vt 0.491596 0.190361
vt 0.491596 0.193641
vt 0.396062 0.172811
vt 0.396062 0.167039
vt 0.405106 0.167039
vt 0.405106 0.172811
vt 0.125000 0.500000
vt 0.375000 0.500000
vt 0.375000 0.750000
vt 0.125000 0.750000
vt 0.475836 0.193560
vt 0.475836 0.190214
vt 0.491495 0.190365
vt 0.489226 0.191690
vt 0.490420 0.193503
vt 0.490420 0.190266
vt 0.492737 0.190266
vt 0.492737 0.193503
vn 0.0000 1.0000 0.0000
vn 0.0000 0.0000 -1.0000
vn 1.0000 0.0000 0.0000
vn 0.0000 -1.0000 0.0000
vn -1.0000 0.0000 -0.0000
vn 0.0000 0.0000 1.0000
usemtl basically_everything
s off
f 41/115/31 45/116/31 47/117/31 43/118/31
f 44/119/32 43/120/32 47/121/32 48/122/32
f 48/123/33 47/124/33 45/125/33 46/126/33
f 46/127/34 42/128/34 44/129/34 48/130/34
f 42/131/35 41/132/35 43/133/35 44/134/35
f 46/135/36 45/136/36 41/137/36 42/138/36
o Cube.006
v -0.329917 1.139320 1.019963
v -0.329917 0.884358 1.019963
v -0.329917 1.139320 -1.019963
v -0.329917 0.884358 -1.019963
v -0.262234 1.139320 1.019963
v -0.262234 0.884358 1.019963
v -0.262234 1.139320 -1.019963
v -0.262234 0.884358 -1.019963
vt 0.625000 0.500000
vt 0.875000 0.500000
vt 0.875000 0.750000
vt 0.625000 0.750000
vt 0.477902 0.193638
vt 0.477902 0.190329
vt 0.489149 0.190329
vt 0.489149 0.193638
vt 0.396062 0.172811
vt 0.399646 0.167354
vt 0.405106 0.167039
vt 0.403483 0.171479
vt 0.125000 0.500000
vt 0.375000 0.500000
vt 0.375000 0.750000
vt 0.125000 0.750000
vt 0.475641 0.191781
vt 0.473389 0.190180
vt 0.489047 0.190332
vt 0.492205 0.193411
vt 0.487972 0.193498
vt 0.487972 0.190232
vt 0.490290 0.190232
vt 0.490290 0.193498
vn 0.0000 1.0000 0.0000
vn 0.0000 0.0000 -1.0000
vn 1.0000 0.0000 0.0000
vn 0.0000 -1.0000 0.0000
vn -1.0000 0.0000 -0.0000
vn 0.0000 0.0000 1.0000
usemtl basically_everything
s off
f 49/139/37 53/140/37 55/141/37 51/142/37
f 52/143/38 51/144/38 55/145/38 56/146/38
f 56/147/39 55/148/39 53/149/39 54/150/39
f 54/151/40 50/152/40 52/153/40 56/154/40
f 50/155/41 49/156/41 51/157/41 52/158/41
f 54/159/42 53/160/42 49/161/42 50/162/42
o Cube.007
v -0.329917 0.845848 1.019963
v -0.329917 0.590886 1.019963
v -0.329917 0.845848 -1.019963
v -0.329917 0.590886 -1.019963
v -0.262234 0.845848 1.019963
v -0.262234 0.590886 1.019963
v -0.262234 0.845848 -1.019963
v -0.262234 0.590886 -1.019963
vt 0.625000 0.500000
vt 0.875000 0.500000
vt 0.875000 0.750000
vt 0.625000 0.750000
vt 0.479245 0.193237
vt 0.479245 0.190889
vt 0.490492 0.190889
vt 0.490492 0.193237
vt 0.398096 0.171648
vt 0.396062 0.167039
vt 0.405106 0.167039
vt 0.405106 0.172811
vt 0.125000 0.500000
vt 0.375000 0.500000
vt 0.375000 0.750000
vt 0.125000 0.750000
vt 0.474732 0.193179
vt 0.474732 0.190783
vt 0.490391 0.190891
vt 0.490351 0.192567
vt 0.489316 0.193138
vt 0.489316 0.190821
vt 0.491633 0.190821
vt 0.491633 0.193138
vn 0.0000 1.0000 0.0000
vn 0.0000 0.0000 -1.0000
vn 1.0000 0.0000 0.0000
vn 0.0000 -1.0000 0.0000
vn -1.0000 0.0000 -0.0000
vn 0.0000 0.0000 1.0000
usemtl basically_everything
s off
f 57/163/43 61/164/43 63/165/43 59/166/43
f 60/167/44 59/168/44 63/169/44 64/170/44
f 64/171/45 63/172/45 61/173/45 62/174/45
f 62/175/46 58/176/46 60/177/46 64/178/46
f 58/179/47 57/180/47 59/181/47 60/182/47
f 62/183/48 61/184/48 57/185/48 58/186/48
o Cube.008
v -0.329917 0.549822 1.019963
v -0.329917 0.294860 1.019963
v -0.329917 0.549822 -1.019963
v -0.329917 0.294860 -1.019963
v -0.262234 0.549822 1.019963
v -0.262234 0.294860 1.019963
v -0.262234 0.549822 -1.019963
v -0.262234 0.294860 -1.019963
vt 0.625000 0.500000
vt 0.875000 0.500000
vt 0.875000 0.750000
vt 0.625000 0.750000
vt 0.478761 0.193237
vt 0.478761 0.190889
vt 0.490008 0.190889
vt 0.490008 0.193237
vt 0.396062 0.172811
vt 0.396062 0.167039
vt 0.405106 0.167039
vt 0.405106 0.172811
vt 0.125000 0.500000
vt 0.375000 0.500000
vt 0.375000 0.750000
vt 0.125000 0.750000
vt 0.474901 0.191629
vt 0.474247 0.190783
vt 0.489906 0.190891
vt 0.493790 0.193051
vt 0.488831 0.193138
vt 0.488831 0.190821
vt 0.491148 0.190821
vt 0.491148 0.193138
vn 0.0000 1.0000 0.0000
vn 0.0000 0.0000 -1.0000
vn 1.0000 0.0000 0.0000
vn 0.0000 -1.0000 0.0000
vn -1.0000 0.0000 -0.0000
vn 0.0000 0.0000 1.0000
usemtl basically_everything
s off
f 65/187/49 69/188/49 71/189/49 67/190/49
f 68/191/50 67/192/50 71/193/50 72/194/50
f 72/195/51 71/196/51 69/197/51 70/198/51
f 70/199/52 66/200/52 68/201/52 72/202/52
f 66/203/53 65/204/53 67/205/53 68/206/53
f 70/207/54 69/208/54 65/209/54 66/210/54
o Cube.009
v -0.282230 -0.012672 -1.000000
v -0.282230 1.171109 -1.000000
v -0.282230 -0.012672 1.000000
v -0.282230 1.171109 1.000000
v -0.307595 -0.012672 -1.000000
v -0.307595 1.171109 -1.000000
v -0.307596 -0.012672 1.000000
v -0.307596 1.171109 1.000000
vt 0.375000 0.000000
vt 0.625000 0.000000
vt 0.625000 0.250000
vt 0.375000 0.250000
vt 0.625000 0.500000
vt 0.375000 0.500000
vt 0.384626 0.170333
vt 0.385651 0.166678
vt 0.389190 0.166627
vt 0.390530 0.168532
vt 0.375000 0.750000
vt 0.625000 0.750000
vt 0.625000 1.000000
vt 0.375000 1.000000
vt 0.125000 0.500000
vt 0.125000 0.750000
vt 0.875000 0.500000
vt 0.875000 0.750000
vn 1.0000 0.0000 0.0000
vn 0.0000 0.0000 1.0000
vn -1.0000 0.0000 -0.0000
vn 0.0000 0.0000 -1.0000
vn 0.0000 -1.0000 0.0000
vn 0.0000 1.0000 0.0000
usemtl basically_everything
s off
f 73/211/55 74/212/55 76/213/55 75/214/55
f 75/214/56 76/213/56 80/215/56 79/216/56
f 79/217/57 80/218/57 78/219/57 77/220/57
f 77/221/58 78/222/58 74/223/58 73/224/58
f 75/225/59 79/216/59 77/221/59 73/226/59
f 80/215/60 76/227/60 74/228/60 78/222/60
o Cube.010
v -0.314900 0.256015 -0.959747
v -0.314900 0.001053 -0.959747
v 0.495921 0.256015 -0.959747
v 0.495921 0.001053 -0.959747
v -0.314900 0.256015 -0.860435
v -0.314900 0.001053 -0.860435
v 0.495921 0.256015 -0.860435
v 0.495921 0.001053 -0.860435
vt 0.625000 0.500000
vt 0.875000 0.500000
vt 0.875000 0.750000
vt 0.625000 0.750000
vt 0.480349 0.193641
vt 0.480349 0.190361
vt 0.491596 0.190361
vt 0.491596 0.193641
vt 0.396062 0.172811
vt 0.396062 0.167039
vt 0.405106 0.167039
vt 0.405106 0.172811
vt 0.125000 0.500000
vt 0.375000 0.500000
vt 0.375000 0.750000
vt 0.125000 0.750000
vt 0.475836 0.193560
vt 0.475836 0.190214
vt 0.491495 0.190365
vt 0.489226 0.191690
vt 0.490420 0.193503
vt 0.490420 0.190266
vt 0.492737 0.190266
vt 0.492737 0.193503
vn 0.0000 1.0000 0.0000
vn 1.0000 0.0000 0.0000
vn -0.0000 0.0000 1.0000
vn 0.0000 -1.0000 0.0000
vn 0.0000 0.0000 -1.0000
vn -1.0000 0.0000 0.0000
usemtl basically_everything
s off
f 81/229/61 85/230/61 87/231/61 83/232/61
f 84/233/62 83/234/62 87/235/62 88/236/62
f 88/237/63 87/238/63 85/239/63 86/240/63
f 86/241/64 82/242/64 84/243/64 88/244/64
f 82/245/65 81/246/65 83/247/65 84/248/65
f 86/249/66 85/250/66 81/251/66 82/252/66
o Cube.011
v -0.314900 0.550423 -0.959747
v -0.314900 0.295460 -0.959747
v 0.495921 0.550423 -0.959747
v 0.495921 0.295460 -0.959747
v -0.314900 0.550423 -0.860435
v -0.314900 0.295460 -0.860435
v 0.495921 0.550423 -0.860435
v 0.495921 0.295460 -0.860435
vt 0.625000 0.500000
vt 0.875000 0.500000
vt 0.875000 0.750000
vt 0.625000 0.750000
vt 0.478761 0.193237
vt 0.478761 0.190889
vt 0.490008 0.190889
vt 0.490008 0.193237
vt 0.396062 0.172811
vt 0.396062 0.167039
vt 0.405106 0.167039
vt 0.405106 0.172811
vt 0.125000 0.500000
vt 0.375000 0.500000
vt 0.375000 0.750000
vt 0.125000 0.750000
vt 0.474901 0.191629
vt 0.474247 0.190783
vt 0.489906 0.190891
vt 0.493790 0.193051
vt 0.488831 0.193138
vt 0.488831 0.190821
vt 0.491148 0.190821
vt 0.491148 0.193138
vn 0.0000 1.0000 0.0000
vn 1.0000 0.0000 0.0000
vn -0.0000 0.0000 1.0000
vn 0.0000 -1.0000 0.0000
vn 0.0000 0.0000 -1.0000
vn -1.0000 0.0000 0.0000
usemtl basically_everything
s off
f 89/253/67 93/254/67 95/255/67 91/256/67
f 92/257/68 91/258/68 95/259/68 96/260/68
f 96/261/69 95/262/69 93/263/69 94/264/69
f 94/265/70 90/266/70 92/267/70 96/268/70
f 90/269/71 89/270/71 91/271/71 92/272/71
f 94/273/72 93/274/72 89/275/72 90/276/72
o Cube.012
v -0.314900 0.845848 -0.959747
v -0.314900 0.590886 -0.959747
v 0.495921 0.845848 -0.959747
v 0.495921 0.590886 -0.959747
v -0.314900 0.845848 -0.860435
v -0.314900 0.590886 -0.860435
v 0.495921 0.845848 -0.860435
v 0.495921 0.590886 -0.860435
vt 0.625000 0.500000
vt 0.875000 0.500000
vt 0.875000 0.750000
vt 0.625000 0.750000
vt 0.479245 0.193237
vt 0.479245 0.190889
vt 0.490492 0.190889
vt 0.490492 0.193237
vt 0.398096 0.171648
vt 0.396062 0.167039
vt 0.405106 0.167039
vt 0.405106 0.172811
vt 0.125000 0.500000
vt 0.375000 0.500000
vt 0.375000 0.750000
vt 0.125000 0.750000
vt 0.474732 0.193179
vt 0.474732 0.190783
vt 0.490391 0.190891
vt 0.490351 0.192567
vt 0.489316 0.193138
vt 0.489316 0.190821
vt 0.491633 0.190821
vt 0.491633 0.193138
vn 0.0000 1.0000 0.0000
vn 1.0000 0.0000 0.0000
vn -0.0000 0.0000 1.0000
vn 0.0000 -1.0000 0.0000
vn 0.0000 0.0000 -1.0000
vn -1.0000 0.0000 0.0000
usemtl basically_everything
s off
f 97/277/73 101/278/73 103/279/73 99/280/73
f 100/281/74 99/282/74 103/283/74 104/284/74
f 104/285/75 103/286/75 101/287/75 102/288/75
f 102/289/76 98/290/76 100/291/76 104/292/76
f 98/293/77 97/294/77 99/295/77 100/296/77
f 102/297/78 101/298/78 97/299/78 98/300/78
o Cube.013
v -0.314900 1.140255 -0.959747
v -0.314900 0.885293 -0.959747
v 0.495921 1.140255 -0.959747
v 0.495921 0.885293 -0.959747
v -0.314900 1.140255 -0.860435
v -0.314900 0.885293 -0.860435
v 0.495921 1.140255 -0.860435
v 0.495921 0.885293 -0.860435
vt 0.625000 0.500000
vt 0.875000 0.500000
vt 0.875000 0.750000
vt 0.625000 0.750000
vt 0.477902 0.193638
vt 0.477902 0.190329
vt 0.489149 0.190329
vt 0.489149 0.193638
vt 0.396062 0.172811
vt 0.399646 0.167354
vt 0.405106 0.167039
vt 0.403483 0.171479
vt 0.125000 0.500000
vt 0.375000 0.500000
vt 0.375000 0.750000
vt 0.125000 0.750000
vt 0.475641 0.191781
vt 0.473389 0.190180
vt 0.489047 0.190332
vt 0.492205 0.193411
vt 0.487972 0.193498
vt 0.487972 0.190232
vt 0.490290 0.190232
vt 0.490290 0.193498
vn 0.0000 1.0000 0.0000
vn 1.0000 0.0000 0.0000
vn -0.0000 0.0000 1.0000
vn 0.0000 -1.0000 0.0000
vn 0.0000 0.0000 -1.0000
vn -1.0000 0.0000 0.0000
usemtl basically_everything
s off
f 105/301/79 109/302/79 111/303/79 107/304/79
f 108/305/80 107/306/80 111/307/80 112/308/80
f 112/309/81 111/310/81 109/311/81 110/312/81
f 110/313/82 106/314/82 108/315/82 112/316/82
f 106/317/83 105/318/83 107/319/83 108/320/83
f 110/321/84 109/322/84 105/323/84 106/324/84
o Cube.014
v 0.487987 -0.012672 -0.889776
v 0.487987 1.171109 -0.889776
v -0.306965 -0.012672 -0.889776
v -0.306965 1.171109 -0.889776
v 0.487987 -0.012672 -0.926995
v 0.487987 1.171109 -0.926995
v -0.306965 -0.012672 -0.926995
v -0.306965 1.171109 -0.926995
vt 0.375000 0.000000
vt 0.625000 0.000000
vt 0.625000 0.250000
vt 0.375000 0.250000
vt 0.625000 0.500000
vt 0.375000 0.500000
vt 0.384626 0.170333
vt 0.385651 0.166678
vt 0.389190 0.166627
vt 0.390530 0.168532
vt 0.375000 0.750000
vt 0.625000 0.750000
vt 0.625000 1.000000
vt 0.375000 1.000000
vt 0.125000 0.500000
vt 0.125000 0.750000
vt 0.875000 0.500000
vt 0.875000 0.750000
vn 0.0000 0.0000 1.0000
vn -1.0000 0.0000 0.0000
vn 0.0000 0.0000 -1.0000
vn 1.0000 0.0000 0.0000
vn 0.0000 -1.0000 0.0000
vn 0.0000 1.0000 0.0000
usemtl basically_everything
s off
f 113/325/85 114/326/85 116/327/85 115/328/85
f 115/328/86 116/327/86 120/329/86 119/330/86
f 119/331/87 120/332/87 118/333/87 117/334/87
f 117/335/88 118/336/88 114/337/88 113/338/88
f 115/339/89 119/330/89 117/335/89 113/340/89
f 120/329/90 116/341/90 114/342/90 118/336/90
o Cube.015
v -0.314900 0.256015 0.966733
v -0.314900 0.001053 0.966733
v 0.495921 0.256015 0.966733
v 0.495921 0.001053 0.966733
v -0.314900 0.256015 0.867421
v -0.314900 0.001053 0.867421
v 0.495921 0.256015 0.867421
v 0.495921 0.001053 0.867421
vt 0.625000 0.500000
vt 0.625000 0.750000
vt 0.875000 0.750000
vt 0.875000 0.500000
vt 0.480349 0.193641
vt 0.491596 0.193641
vt 0.491596 0.190361
vt 0.480349 0.190361
vt 0.396062 0.172811
vt 0.405106 0.172811
vt 0.405106 0.167039
vt 0.396062 0.167039
vt 0.125000 0.500000
vt 0.125000 0.750000
vt 0.375000 0.750000
vt 0.375000 0.500000
vt 0.475836 0.193560
vt 0.489226 0.191690
vt 0.491495 0.190365
vt 0.475836 0.190214
vt 0.490420 0.193503
vt 0.492737 0.193503
vt 0.492737 0.190266
vt 0.490420 0.190266
vn 0.0000 1.0000 0.0000
vn 1.0000 0.0000 0.0000
vn 0.0000 0.0000 -1.0000
vn 0.0000 -1.0000 0.0000
vn -0.0000 0.0000 1.0000
vn -1.0000 0.0000 0.0000
usemtl basically_everything
s off
f 121/343/91 123/344/91 127/345/91 125/346/91
f 124/347/92 128/348/92 127/349/92 123/350/92
f 128/351/93 126/352/93 125/353/93 127/354/93
f 126/355/94 128/356/94 124/357/94 122/358/94
f 122/359/95 124/360/95 123/361/95 121/362/95
f 126/363/96 122/364/96 121/365/96 125/366/96
o Cube.016
v -0.314900 0.550423 0.966733
v -0.314900 0.295460 0.966733
v 0.495921 0.550423 0.966733
v 0.495921 0.295460 0.966733
v -0.314900 0.550423 0.867421
v -0.314900 0.295460 0.867421
v 0.495921 0.550423 0.867421
v 0.495921 0.295460 0.867421
vt 0.625000 0.500000
vt 0.625000 0.750000
vt 0.875000 0.750000
vt 0.875000 0.500000
vt 0.478761 0.193237
vt 0.490008 0.193237
vt 0.490008 0.190889
vt 0.478761 0.190889
vt 0.396062 0.172811
vt 0.405106 0.172811
vt 0.405106 0.167039
vt 0.396062 0.167039
vt 0.125000 0.500000
vt 0.125000 0.750000
vt 0.375000 0.750000
vt 0.375000 0.500000
vt 0.474901 0.191629
vt 0.493790 0.193051
vt 0.489906 0.190891
vt 0.474247 0.190783
vt 0.488831 0.193138
vt 0.491148 0.193138
vt 0.491148 0.190821
vt 0.488831 0.190821
vn 0.0000 1.0000 0.0000
vn 1.0000 0.0000 0.0000
vn 0.0000 0.0000 -1.0000
vn 0.0000 -1.0000 0.0000
vn -0.0000 0.0000 1.0000
vn -1.0000 0.0000 0.0000
usemtl basically_everything
s off
f 129/367/97 131/368/97 135/369/97 133/370/97
f 132/371/98 136/372/98 135/373/98 131/374/98
f 136/375/99 134/376/99 133/377/99 135/378/99
f 134/379/100 136/380/100 132/381/100 130/382/100
f 130/383/101 132/384/101 131/385/101 129/386/101
f 134/387/102 130/388/102 129/389/102 133/390/102
o Cube.017
v -0.314900 0.845848 0.966733
v -0.314900 0.590886 0.966733
v 0.495921 0.845848 0.966733
v 0.495921 0.590886 0.966733
v -0.314900 0.845848 0.867421
v -0.314900 0.590886 0.867421
v 0.495921 0.845848 0.867421
v 0.495921 0.590886 0.867421
vt 0.625000 0.500000
vt 0.625000 0.750000
vt 0.875000 0.750000
vt 0.875000 0.500000
vt 0.479245 0.193237
vt 0.490492 0.193237
vt 0.490492 0.190889
vt 0.479245 0.190889
vt 0.398096 0.171648
vt 0.405106 0.172811
vt 0.405106 0.167039
vt 0.396062 0.167039
vt 0.125000 0.500000
vt 0.125000 0.750000
vt 0.375000 0.750000
vt 0.375000 0.500000
vt 0.474732 0.193179
vt 0.490351 0.192567
vt 0.490391 0.190891
vt 0.474732 0.190783
vt 0.489316 0.193138
vt 0.491633 0.193138
vt 0.491633 0.190821
vt 0.489316 0.190821
vn 0.0000 1.0000 0.0000
vn 1.0000 0.0000 0.0000
vn 0.0000 0.0000 -1.0000
vn 0.0000 -1.0000 0.0000
vn -0.0000 0.0000 1.0000
vn -1.0000 0.0000 0.0000
usemtl basically_everything
s off
f 137/391/103 139/392/103 143/393/103 141/394/103
f 140/395/104 144/396/104 143/397/104 139/398/104
f 144/399/105 142/400/105 141/401/105 143/402/105
f 142/403/106 144/404/106 140/405/106 138/406/106
f 138/407/107 140/408/107 139/409/107 137/410/107
f 142/411/108 138/412/108 137/413/108 141/414/108
o Cube.018
v -0.314900 1.140255 0.966733
v -0.314900 0.885293 0.966733
v 0.495921 1.140255 0.966733
v 0.495921 0.885293 0.966733
v -0.314900 1.140255 0.867421
v -0.314900 0.885293 0.867421
v 0.495921 1.140255 0.867421
v 0.495921 0.885293 0.867421
vt 0.625000 0.500000
vt 0.625000 0.750000
vt 0.875000 0.750000
vt 0.875000 0.500000
vt 0.477902 0.193638
vt 0.489149 0.193638
vt 0.489149 0.190329
vt 0.477902 0.190329
vt 0.396062 0.172811
vt 0.403483 0.171479
vt 0.405106 0.167039
vt 0.399646 0.167354
vt 0.125000 0.500000
vt 0.125000 0.750000
vt 0.375000 0.750000
vt 0.375000 0.500000
vt 0.475641 0.191781
vt 0.492205 0.193411
vt 0.489047 0.190332
vt 0.473389 0.190180
vt 0.487972 0.193498
vt 0.490290 0.193498
vt 0.490290 0.190232
vt 0.487972 0.190232
vn 0.0000 1.0000 0.0000
vn 1.0000 0.0000 0.0000
vn 0.0000 0.0000 -1.0000
vn 0.0000 -1.0000 0.0000
vn -0.0000 0.0000 1.0000
vn -1.0000 0.0000 0.0000
usemtl basically_everything
s off
f 145/415/109 147/416/109 151/417/109 149/418/109
f 148/419/110 152/420/110 151/421/110 147/422/110
f 152/423/111 150/424/111 149/425/111 151/426/111
f 150/427/112 152/428/112 148/429/112 146/430/112
f 146/431/113 148/432/113 147/433/113 145/434/113
f 150/435/114 146/436/114 145/437/114 149/438/114
o Cube.019
v 0.487987 -0.012672 0.896762
v 0.487987 1.171109 0.896762
v -0.306965 -0.012672 0.896762
v -0.306965 1.171109 0.896762
v 0.487987 -0.012672 0.933981
v 0.487987 1.171109 0.933981
v -0.306965 -0.012672 0.933981
v -0.306965 1.171109 0.933981
vt 0.375000 0.000000
vt 0.375000 0.250000
vt 0.625000 0.250000
vt 0.625000 0.000000
vt 0.375000 0.500000
vt 0.625000 0.500000
vt 0.384626 0.170333
vt 0.390530 0.168532
vt 0.389190 0.166627
vt 0.385651 0.166678
vt 0.375000 0.750000
vt 0.375000 1.000000
vt 0.625000 1.000000
vt 0.625000 0.750000
vt 0.125000 0.500000
vt 0.125000 0.750000
vt 0.875000 0.750000
vt 0.875000 0.500000
vn 0.0000 0.0000 -1.0000
vn -1.0000 0.0000 0.0000
vn 0.0000 0.0000 1.0000
vn 1.0000 0.0000 0.0000
vn 0.0000 -1.0000 0.0000
vn 0.0000 1.0000 0.0000
usemtl basically_everything
s off
f 153/439/115 155/440/115 156/441/115 154/442/115
f 155/440/116 159/443/116 160/444/116 156/441/116
f 159/445/117 157/446/117 158/447/117 160/448/117
f 157/449/118 153/450/118 154/451/118 158/452/118
f 155/453/119 153/454/119 157/449/119 159/443/119
f 160/444/120 158/452/120 154/455/120 156/456/120
o Cube.022
v 0.486070 1.128894 -0.230333
v 0.486070 1.181333 -0.230333
v 0.486070 1.128894 -0.586941
v 0.486070 1.181333 -0.586941
v 0.521808 1.128894 -0.230333
v 0.521808 1.181333 -0.230333
v 0.521808 1.128894 -0.586941
v 0.521808 1.181333 -0.586941
vt 0.381874 0.174712
vt 0.387169 0.174712
vt 0.387169 0.180007
vt 0.381874 0.180007
vt 0.387169 0.185303
vt 0.381874 0.185303
vt 0.387169 0.190598
vt 0.381874 0.190598
vt 0.387169 0.195894
vt 0.381874 0.195894
vt 0.376578 0.185303
vt 0.376578 0.190598
vt 0.392465 0.185303
vt 0.392465 0.190598
vn -1.0000 0.0000 0.0000
vn 0.0000 0.0000 -1.0000
vn 1.0000 0.0000 0.0000
vn 0.0000 0.0000 1.0000
vn 0.0000 -1.0000 0.0000
vn 0.0000 1.0000 0.0000
usemtl basically_everything
s off
f 161/457/121 162/458/121 164/459/121 163/460/121
f 163/460/122 164/459/122 168/461/122 167/462/122
f 167/462/123 168/461/123 166/463/123 165/464/123
f 165/464/124 166/463/124 162/465/124 161/466/124
f 163/467/125 167/462/125 165/464/125 161/468/125
f 168/461/126 164/469/126 162/470/126 166/463/126
o Cube.023
v 0.486070 1.128894 -0.633664
v 0.486070 1.181333 -0.633664
v 0.486070 1.128894 -0.990272
v 0.486070 1.181333 -0.990272
v 0.521808 1.128894 -0.633664
v 0.521808 1.181333 -0.633664
v 0.521808 1.128894 -0.990272
v 0.521808 1.181333 -0.990272
vt 0.381874 0.174712
vt 0.387169 0.174712
vt 0.387169 0.180007
vt 0.381874 0.180007
vt 0.387169 0.185303
vt 0.381874 0.185303
vt 0.387169 0.190598
vt 0.381874 0.190598
vt 0.387169 0.195894
vt 0.381874 0.195894
vt 0.376578 0.185303
vt 0.376578 0.190598
vt 0.392465 0.185303
vt 0.392465 0.190598
vn -1.0000 0.0000 0.0000
vn 0.0000 0.0000 -1.0000
vn 1.0000 0.0000 0.0000
vn 0.0000 0.0000 1.0000
vn 0.0000 -1.0000 0.0000
vn 0.0000 1.0000 0.0000
usemtl basically_everything
s off
f 169/471/127 170/472/127 172/473/127 171/474/127
f 171/474/128 172/473/128 176/475/128 175/476/128
f 175/476/129 176/475/129 174/477/129 173/478/129
f 173/478/130 174/477/130 170/479/130 169/480/130
f 171/481/131 175/476/131 173/478/131 169/482/131
f 176/475/132 172/483/132 170/484/132 174/477/132
o Cube.024
v 0.486070 1.128894 0.991599
v 0.486070 1.181333 0.991599
v 0.486070 1.128894 0.634991
v 0.486070 1.181333 0.634991
v 0.521808 1.128894 0.991599
v 0.521808 1.181333 0.991599
v 0.521808 1.128894 0.634991
v 0.521808 1.181333 0.634991
vt 0.381874 0.174712
vt 0.387169 0.174712
vt 0.387169 0.180007
vt 0.381874 0.180007
vt 0.387169 0.185303
vt 0.381874 0.185303
vt 0.387169 0.190598
vt 0.381874 0.190598
vt 0.387169 0.195894
vt 0.381874 0.195894
vt 0.376578 0.185303
vt 0.376578 0.190598
vt 0.392465 0.185303
vt 0.392465 0.190598
vn -1.0000 0.0000 0.0000
vn 0.0000 0.0000 -1.0000
vn 1.0000 0.0000 0.0000
vn 0.0000 0.0000 1.0000
vn 0.0000 -1.0000 0.0000
vn 0.0000 1.0000 0.0000
usemtl basically_everything
s off
f 177/485/133 178/486/133 180/487/133 179/488/133
f 179/488/134 180/487/134 184/489/134 183/490/134
f 183/490/135 184/489/135 182/491/135 181/492/135
f 181/492/136 182/491/136 178/493/136 177/494/136
f 179/495/137 183/490/137 181/492/137 177/496/137
f 184/489/138 180/497/138 178/498/138 182/491/138
o Cube.025
v 0.486070 1.128894 0.582962
v 0.486070 1.181333 0.582962
v 0.486070 1.128894 0.226353
v 0.486070 1.181333 0.226353
v 0.521808 1.128894 0.582962
v 0.521808 1.181333 0.582962
v 0.521808 1.128894 0.226353
v 0.521808 1.181333 0.226353
vt 0.381874 0.174712
vt 0.387169 0.174712
vt 0.387169 0.180007
vt 0.381874 0.180007
vt 0.387169 0.185303
vt 0.381874 0.185303
vt 0.387169 0.190598
vt 0.381874 0.190598
vt 0.387169 0.195894
vt 0.381874 0.195894
vt 0.376578 0.185303
vt 0.376578 0.190598
vt 0.392465 0.185303
vt 0.392465 0.190598
vn -1.0000 0.0000 0.0000
vn 0.0000 0.0000 -1.0000
vn 1.0000 0.0000 0.0000
vn 0.0000 0.0000 1.0000
vn 0.0000 -1.0000 0.0000
vn 0.0000 1.0000 0.0000
usemtl basically_everything
s off
f 185/499/139 186/500/139 188/501/139 187/502/139
f 187/502/140 188/501/140 192/503/140 191/504/140
f 191/504/141 192/503/141 190/505/141 189/506/141
f 189/506/142 190/505/142 186/507/142 185/508/142
f 187/509/143 191/504/143 189/506/143 185/510/143
f 192/503/144 188/511/144 186/512/144 190/505/144
o Cube.026
v 0.486070 1.128894 0.179631
v 0.486070 1.181333 0.179631
v 0.486070 1.128894 -0.176977
v 0.486070 1.181333 -0.176977
v 0.521808 1.128894 0.179631
v 0.521808 1.181333 0.179631
v 0.521808 1.128894 -0.176977
v 0.521808 1.181333 -0.176977
vt 0.381874 0.174712
vt 0.387169 0.174712
vt 0.387169 0.180007
vt 0.381874 0.180007
vt 0.387169 0.185303
vt 0.381874 0.185303
vt 0.387169 0.190598
vt 0.381874 0.190598
vt 0.387169 0.195894
vt 0.381874 0.195894
vt 0.376578 0.185303
vt 0.376578 0.190598
vt 0.392465 0.185303
vt 0.392465 0.190598
vn -1.0000 0.0000 0.0000
vn 0.0000 0.0000 -1.0000
vn 1.0000 0.0000 0.0000
vn 0.0000 0.0000 1.0000
vn 0.0000 -1.0000 0.0000
vn 0.0000 1.0000 0.0000
usemtl basically_everything
s off
f 193/513/145 194/514/145 196/515/145 195/516/145
f 195/516/146 196/515/146 200/517/146 199/518/146
f 199/518/147 200/517/147 198/519/147 197/520/147
f 197/520/148 198/519/148 194/521/148 193/522/148
f 195/523/149 199/518/149 197/520/149 193/524/149
f 200/517/150 196/525/150 194/526/150 198/519/150
o Plane.001
v -0.346932 1.033046 1.030414
v -0.346932 0.107906 1.030414
v -0.347560 1.033046 -0.740265
v -0.347560 0.107906 -0.740265
v -0.248028 1.033046 1.032043
v -0.248028 0.107906 1.032043
v -0.243341 1.033046 0.970865
v -0.243341 0.107906 0.970865
v 0.414921 1.033046 0.975047
v 0.414921 0.107906 0.975047
vt 0.454118 0.179491
vt 0.454118 0.197548
vt 0.429529 0.197548
vt 0.429529 0.179491
vt 0.456292 0.179494
vt 0.456292 0.197505
vt 0.456303 0.197657
vt 0.456303 0.179398
vt 0.457409 0.179398
vt 0.457409 0.197657
vt 0.457399 0.179231
vt 0.465134 0.179231
vt 0.465134 0.197661
vn 1.0000 0.0000 -0.0004
vn 0.0165 0.0000 -0.9999
vn -0.9971 -0.0000 -0.0764
vn 0.0064 0.0000 -1.0000
usemtl basically_everything
s off
f 201/527/151 202/528/151 204/529/151 203/530/151
f 202/528/152 201/527/152 205/531/152 206/532/152
f 206/533/153 205/534/153 207/535/153 208/536/153
f 208/536/154 207/537/154 209/538/154 210/539/154
o Plane.002
v 0.508031 1.033046 0.908085
v 0.508031 0.107906 0.908085
v 0.150626 1.033782 -0.955412
v 0.150626 0.108641 -0.955412
v 0.508031 1.033046 -1.038642
v 0.508031 0.107906 -1.038642
vt 0.453548 0.198123
vt 0.463496 0.178861
vt 0.471299 0.180573
vt 0.462155 0.195986
vt 0.429226 0.198120
vt 0.429506 0.179041
vn -0.2268 -0.0000 -0.9739
vn 1.0000 0.0000 -0.0000
usemtl basically_everything
s off
f 215/540/155 216/541/155 214/542/155 213/543/155
f 211/544/156 212/545/156 216/541/156 215/540/156
o cross_1_Plane.003
v -0.337400 0.016464 0.522223
v -0.337400 1.060910 0.522223
v -0.337400 0.016464 -0.522223
v -0.337400 1.060910 -0.522223
vt 0.428012 0.179345
vt 0.428012 0.196982
vt 0.410375 0.196982
vt 0.410375 0.179345
vn -1.0000 0.0000 -0.0000
usemtl basically_everything
s off
f 217/546/157 218/547/157 220/548/157 219/549/157
o Plane.007
v -0.316785 0.000000 0.956481
v 0.500698 0.000000 0.956481
v -0.316785 0.000000 -0.939974
v 0.500698 0.000000 -0.939974
vt 0.386687 0.166453
vt 0.376546 0.166453
vt 0.376546 0.156312
vt 0.386687 0.156312
vn 0.0000 1.0000 0.0000
usemtl basically_everything
s off
f 221/550/158 222/551/158 224/552/158 223/553/158
o cross_2_Plane
v -0.213623 1.306383 0.327168
v 0.440710 1.308115 0.327168
v -0.213623 1.306383 -0.327168
v 0.440710 1.308115 -0.327168
vt 0.428012 0.179345
vt 0.428012 0.196982
vt 0.410375 0.196982
vt 0.410375 0.179345
vn -0.0026 1.0000 0.0000
usemtl basically_everything
s off
f 225/554/159 226/555/159 228/556/159 227/557/159
o Cube.020
v -0.276644 1.290935 1.014034
v -0.389058 1.290638 0.956838
v -0.276341 1.176191 1.217379
v -0.276299 1.160568 0.956838
v -0.388754 1.175893 0.956838
v -0.389058 1.290638 -0.956838
v -0.276644 1.290935 -1.015826
v -0.276299 1.160568 -0.956838
v -0.276341 1.176191 -1.217379
v -0.388754 1.175893 -0.956838
v 0.546226 1.293114 0.956838
v 0.549032 1.293121 1.014034
v 0.533185 1.162711 0.956838
v 0.549335 1.178376 1.217379
v 0.546530 1.178369 0.956838
v 0.549032 1.293121 -1.015826
v 0.546226 1.293114 -0.956838
v 0.533185 1.162711 -0.956838
v 0.546530 1.178369 -0.956838
v 0.549335 1.178376 -1.217379
v -0.275387 1.304560 0.953841
v -0.303138 1.371199 1.017750
v -0.275387 1.304560 -0.953841
v -0.303138 1.371199 -1.017750
v 0.474179 1.306544 0.953841
v 0.575100 1.373523 1.017750
v 0.474179 1.306544 -0.953841
v 0.575100 1.373523 -1.017750
v 0.474246 1.281097 0.581698
v -0.275320 1.279112 0.581698
v 0.474246 1.281097 0.184148
v -0.275320 1.279112 0.184148
v 0.474246 1.281097 -0.215414
v -0.275320 1.279112 -0.215414
v 0.474246 1.281097 -0.592308
v -0.275320 1.279112 -0.592308
v -0.275387 1.304560 0.550005
v 0.474179 1.306544 0.550005
v -0.275387 1.304560 0.626425
v 0.474179 1.306544 0.626425
v -0.275387 1.304560 0.218849
v 0.474179 1.306544 0.218849
v -0.275387 1.304560 0.140837
v 0.474179 1.306544 0.140837
v -0.275387 1.304560 -0.198279
v 0.474179 1.306544 -0.198279
v 0.474179 1.306544 -0.241266
v -0.275387 1.304560 -0.241266
v 0.474179 1.306544 -0.618592
v -0.275387 1.304560 -0.618592
v 0.474179 1.306544 -0.554908
v -0.275387 1.304560 -0.554909
v -0.388754 1.175893 -0.190581
v -0.388754 1.175893 0.227344
v -0.388962 1.254413 -0.155201
v -0.388962 1.254413 0.189752
v -0.365955 1.175953 -0.157413
v -0.365955 1.175953 0.187541
v -0.366122 1.238994 -0.129772
v -0.366122 1.238994 0.157689
vt 0.474944 0.193352
vt 0.474944 0.190486
vt 0.482680 0.190486
vt 0.482680 0.193352
vt 0.474944 0.190406
vt 0.474944 0.193343
vt 0.482680 0.193343
vt 0.482680 0.190406
vt 0.482714 0.190406
vt 0.482714 0.193343
vt 0.475229 0.193343
vt 0.475229 0.190406
vt 0.474944 0.190464
vt 0.474944 0.193326
vt 0.482680 0.193326
vt 0.482680 0.192180
vt 0.479069 0.192127
vt 0.479069 0.191611
vt 0.482680 0.191555
vt 0.482680 0.190464
vt 0.474944 0.193319
vt 0.474944 0.190403
vt 0.482680 0.190403
vt 0.482680 0.193319
vt 0.481889 0.190604
vt 0.481889 0.190876
vt 0.475415 0.190876
vt 0.475415 0.190604
vt 0.482680 0.190074
vt 0.483733 0.190464
vt 0.474671 0.193436
vt 0.474909 0.193743
vt 0.473890 0.193343
vt 0.483733 0.193326
vt 0.482680 0.193716
vt 0.474921 0.193436
vt 0.474921 0.190312
vt 0.483733 0.193352
vt 0.482680 0.193743
vt 0.483733 0.190403
vt 0.482680 0.190006
vt 0.482633 0.193436
vt 0.483413 0.193343
vt 0.482394 0.193743
vt 0.482680 0.191614
vt 0.482680 0.192130
vt 0.482633 0.190312
vt 0.482394 0.190006
vt 0.483413 0.190406
vt 0.474671 0.190312
vt 0.473890 0.190406
vt 0.474909 0.190006
vt 0.482633 0.193483
vt 0.474671 0.193483
vt 0.482752 0.190312
vt 0.482752 0.193436
vt 0.481889 0.193144
vt 0.481889 0.192764
vt 0.481889 0.192712
vt 0.481889 0.192657
vt 0.481889 0.192075
vt 0.481889 0.192013
vt 0.481889 0.191942
vt 0.481889 0.191387
vt 0.481889 0.191358
vt 0.481889 0.191327
vt 0.481889 0.190943
vt 0.481889 0.190897
vt 0.475415 0.193144
vt 0.475415 0.190897
vt 0.475415 0.190943
vt 0.475415 0.191327
vt 0.475415 0.191358
vt 0.475415 0.191387
vt 0.475415 0.191942
vt 0.475415 0.192013
vt 0.475415 0.192075
vt 0.475415 0.192657
vt 0.475415 0.192712
vt 0.475415 0.192764
vt 0.480112 0.192089
vt 0.480112 0.191659
vn -0.0023 0.8709 0.4914
vn 1.0000 0.0026 0.0000
vn 0.0026 -1.0000 0.0000
vn -1.0000 -0.0026 0.0000
vn -0.0023 0.8690 -0.4947
vn -0.0026 1.0000 0.0000
vn -0.1348 -0.9891 0.0593
vn 0.9508 -0.3061 -0.0466
vn -0.1348 -0.9891 -0.0593
vn 0.9412 -0.3380 0.0000
vn 0.7611 -0.6486 -0.0082
vn 0.7611 -0.6486 0.0082
vn -0.4450 -0.1874 0.8757
vn -0.7279 0.4537 0.5142
vn -0.1407 -0.9901 0.0000
vn -0.7311 0.4491 -0.5136
vn -0.4574 -0.1719 -0.8725
vn 0.0026 -0.9982 -0.0599
vn 0.9998 -0.0128 0.0176
vn 0.9506 -0.3071 0.0452
vn 0.7611 -0.6486 0.0000
vn 0.9998 -0.0130 -0.0177
vn 0.0001 -0.0239 -0.9997
vn 0.0026 -0.9982 0.0599
vn 0.0001 -0.0462 0.9989
vn 0.9265 0.3764 0.0000
vn -0.0018 0.6918 0.7221
vn -0.5625 0.8268 0.0000
vn -0.0018 0.6918 -0.7221
vn -0.6840 0.7295 0.0000
vn -0.0023 0.8692 -0.4945
vn -0.0021 0.8064 -0.5914
vn -0.0015 0.5585 -0.8295
vn -0.0022 0.8268 -0.5626
vn -0.0021 0.7798 0.6261
vn -0.0023 0.8622 0.5066
vn -0.0019 0.7127 0.7015
vn -0.0019 0.7184 0.6956
vn -0.7534 -0.6576 -0.0000
usemtl basically_everything
s off
f 240/558/160 229/559/160 231/560/160 242/561/160
f 245/562/161 239/563/161 243/564/161 247/565/161
f 246/566/162 241/567/162 232/568/162 236/569/162
f 230/570/163 234/571/163 238/572/163 281/573/163 283/574/163 284/575/163 282/576/163 233/577/163
f 235/578/164 244/579/164 248/580/164 237/581/164
f 251/582/165 278/583/165 277/584/165 255/585/165
f 231/586/166 233/577/166 232/587/166
f 254/588/167 240/589/167 239/590/167
f 236/591/168 238/572/168 237/592/168
f 254/593/169 239/563/169 245/562/169 256/594/169
f 241/595/170 243/596/170 242/561/170
f 246/597/171 248/580/171 247/598/171
f 250/599/172 230/600/172 229/601/172
f 229/559/173 230/570/173 233/577/173 231/560/173
f 232/587/174 233/577/174 282/576/174 286/602/174 285/603/174 281/573/174 238/572/174 236/591/174
f 237/581/175 238/572/175 234/571/175 235/578/175
f 252/604/176 235/605/176 234/606/176
f 236/591/177 237/581/177 248/580/177 246/597/177
f 247/565/178 248/580/178 244/579/178 245/562/178
f 256/607/179 245/608/179 244/609/179
f 246/566/180 247/565/180 243/564/180 241/567/180
f 242/561/181 243/564/181 239/563/181 240/558/181
f 256/607/182 244/609/182 235/605/182 252/604/182
f 241/595/183 242/561/183 231/560/183 232/587/183
f 250/610/184 229/601/184 240/589/184 254/611/184
f 251/582/185 252/612/185 250/613/185 249/614/185 267/615/185 258/616/185 265/617/185 269/618/185 260/619/185 271/620/185 273/621/185 262/622/185 276/623/185 280/624/185 264/625/185 278/583/185
f 255/585/186 256/607/186 252/604/186 251/582/186
f 253/626/187 254/593/187 256/594/187 255/585/187 277/584/187 263/627/187 279/628/187 275/629/187 261/630/187 274/631/187 272/632/187 259/633/187 270/634/187 266/635/187 257/636/187 268/637/187
f 249/614/188 250/610/188 254/611/188 253/626/188
f 252/612/189 234/606/189 230/600/189 250/613/189
f 258/616/190 267/615/190 268/637/190 257/636/190
f 260/619/191 269/618/191 270/634/191 259/633/191
f 262/622/192 273/621/192 274/631/192 261/630/192
f 264/625/193 280/624/193 279/628/193 263/627/193
f 265/617/194 258/616/194 257/636/194 266/635/194
f 267/615/165 249/614/165 253/626/165 268/637/165
f 269/618/165 265/617/165 266/635/165 270/634/165
f 271/620/195 260/619/195 259/633/195 272/632/195
f 273/621/165 271/620/165 272/632/165 274/631/165
f 276/623/196 262/622/196 261/630/196 275/629/196
f 278/583/197 264/625/197 263/627/197 277/584/197
f 280/624/165 276/623/165 275/629/165 279/628/165
f 281/573/198 285/603/198 287/638/198 288/639/198 286/602/198 282/576/198 284/575/198 283/574/198
f 285/603/163 286/602/163 288/639/163 287/638/163
o Plane.004
v -0.290519 1.346169 -0.265572
v 0.141282 1.347312 -0.265572
v -0.290519 1.346169 -0.990967
v 0.141282 1.347312 -0.990967
vt 0.377043 0.125163
vt 0.398281 0.125124
vt 0.389707 0.134558
vt 0.383733 0.133520
vn -0.0026 1.0000 0.0000
usemtl basically_everything
s off
f 289/640/199 290/641/199 292/642/199 291/643/199
o Plane.005
v -0.246556 1.345112 0.801687
v 0.167044 1.346255 0.925729
v -0.038174 1.345112 0.106867
v 0.375427 1.346255 0.230910
vt 0.454700 0.182235
vt 0.469952 0.182645
vt 0.471094 0.195507
vt 0.450644 0.194518
vn -0.0025 1.0000 -0.0008
usemtl basically_everything
s off
f 293/644/200 294/645/200 296/646/200 295/647/200
o Plane.006
v -0.058962 1.163285 1.060929
v -0.080001 1.364017 0.862664
v 0.479279 1.163386 1.033193
v 0.483439 1.365509 0.789748
v -0.038206 1.364128 1.028555
v 0.504207 1.366097 1.020240
v 0.499067 1.296705 1.012826
v -0.043549 1.297401 1.021305
v 0.520731 1.177468 1.220172
v -0.016250 1.173868 1.241206
vt 0.454930 0.180405
vt 0.453347 0.196119
vt 0.471404 0.196971
vt 0.479345 0.180380
vt 0.441800 0.183571
vt 0.443650 0.196302
vt 0.431812 0.183581
vt 0.434378 0.197670
vt 0.429593 0.183583
vt 0.428726 0.198308
vn -0.0032 1.0000 -0.0013
vn 0.0155 -0.1083 0.9940
vn 0.0111 0.8699 0.4930
vn 0.0064 -0.9978 0.0655
usemtl basically_everything
s off
f 301/648/201 302/649/201 300/650/201 298/651/201
f 304/652/202 303/653/202 302/649/202 301/648/202
f 306/654/203 305/655/203 303/653/203 304/652/203
f 297/656/204 299/657/204 305/655/204 306/654/204
