# Blender v3.3.1 OBJ File: 'med crate.blend'
# www.blender.org
mtllib med crate opened.mtl
o Cube
v 0.599220 0.256015 -1.019963
v 0.599220 0.001053 -1.019963
v 0.599220 0.256015 1.019963
v 0.599220 0.001053 1.019963
v 0.499907 0.256015 -1.019963
v 0.499907 0.001053 -1.019963
v 0.499907 0.256015 1.019963
v 0.499907 0.001053 1.019963
vt 0.625000 0.500000
vt 0.875000 0.500000
vt 0.875000 0.750000
vt 0.625000 0.750000
vt 0.380130 0.172890
vt 0.380130 0.170543
vt 0.391376 0.170543
vt 0.391376 0.172890
vt 0.396062 0.172811
vt 0.396062 0.167039
vt 0.405106 0.167039
vt 0.405106 0.172811
vt 0.125000 0.500000
vt 0.375000 0.500000
vt 0.375000 0.750000
vt 0.125000 0.750000
vt 0.375616 0.172833
vt 0.375616 0.170437
vt 0.391275 0.170545
vt 0.389006 0.171494
vt 0.390200 0.172791
vt 0.390200 0.170474
vt 0.392517 0.170474
vt 0.392517 0.172791
vn 0.0000 1.0000 0.0000
vn 0.0000 0.0000 1.0000
vn -1.0000 0.0000 0.0000
vn 0.0000 -1.0000 0.0000
vn 1.0000 0.0000 0.0000
vn 0.0000 0.0000 -1.0000
usemtl basically_everything
s off
f 1/1/1 5/2/1 7/3/1 3/4/1
f 4/5/2 3/6/2 7/7/2 8/8/2
f 8/9/3 7/10/3 5/11/3 6/12/3
f 6/13/4 2/14/4 4/15/4 8/16/4
f 2/17/5 1/18/5 3/19/5 4/20/5
f 6/21/6 5/22/6 1/23/6 2/24/6
o Cube.001
v 0.599220 0.550422 -1.019963
v 0.599220 0.295460 -1.019963
v 0.599220 0.550422 1.019963
v 0.599220 0.295460 1.019963
v 0.499907 0.550422 -1.019963
v 0.499907 0.295460 -1.019963
v 0.499907 0.550422 1.019963
v 0.499907 0.295460 1.019963
vt 0.625000 0.500000
vt 0.875000 0.500000
vt 0.875000 0.750000
vt 0.625000 0.750000
vt 0.380130 0.172890
vt 0.380130 0.170543
vt 0.391376 0.170543
vt 0.391376 0.172890
vt 0.396062 0.172811
vt 0.399646 0.167354
vt 0.405106 0.167039
vt 0.403483 0.171479
vt 0.125000 0.500000
vt 0.375000 0.500000
vt 0.375000 0.750000
vt 0.125000 0.750000
vt 0.377869 0.171573
vt 0.375616 0.170437
vt 0.391275 0.170545
vt 0.394432 0.172729
vt 0.390200 0.172791
vt 0.390200 0.170474
vt 0.392517 0.170474
vt 0.392517 0.172791
vn 0.0000 1.0000 0.0000
vn 0.0000 0.0000 1.0000
vn -1.0000 0.0000 0.0000
vn 0.0000 -1.0000 0.0000
vn 1.0000 0.0000 0.0000
vn 0.0000 0.0000 -1.0000
usemtl basically_everything
s off
f 9/25/7 13/26/7 15/27/7 11/28/7
f 12/29/8 11/30/8 15/31/8 16/32/8
f 16/33/9 15/34/9 13/35/9 14/36/9
f 14/37/10 10/38/10 12/39/10 16/40/10
f 10/41/11 9/42/11 11/43/11 12/44/11
f 14/45/12 13/46/12 9/47/12 10/48/12
o Cube.002
v 0.599220 0.845848 -1.019963
v 0.599220 0.590886 -1.019963
v 0.599220 0.845848 1.019963
v 0.599220 0.590886 1.019963
v 0.499907 0.845848 -1.019963
v 0.499907 0.590886 -1.019963
v 0.499907 0.845848 1.019963
v 0.499907 0.590886 1.019963
vt 0.625000 0.500000
vt 0.875000 0.500000
vt 0.875000 0.750000
vt 0.625000 0.750000
vt 0.380130 0.172890
vt 0.380130 0.170543
vt 0.391376 0.170543
vt 0.391376 0.172890
vt 0.398096 0.171648
vt 0.396062 0.167039
vt 0.405106 0.167039
vt 0.405106 0.172811
vt 0.125000 0.500000
vt 0.375000 0.500000
vt 0.375000 0.750000
vt 0.125000 0.750000
vt 0.375616 0.172833
vt 0.375616 0.170437
vt 0.391275 0.170545
vt 0.391235 0.172220
vt 0.390200 0.172791
vt 0.390200 0.170474
vt 0.392517 0.170474
vt 0.392517 0.172791
vn 0.0000 1.0000 0.0000
vn 0.0000 0.0000 1.0000
vn -1.0000 0.0000 0.0000
vn 0.0000 -1.0000 0.0000
vn 1.0000 0.0000 0.0000
vn 0.0000 0.0000 -1.0000
usemtl basically_everything
s off
f 17/49/13 21/50/13 23/51/13 19/52/13
f 20/53/14 19/54/14 23/55/14 24/56/14
f 24/57/15 23/58/15 21/59/15 22/60/15
f 22/61/16 18/62/16 20/63/16 24/64/16
f 18/65/17 17/66/17 19/67/17 20/68/17
f 22/69/18 21/70/18 17/71/18 18/72/18
o Cube.003
v 0.599220 1.140255 -1.019963
v 0.599220 0.885293 -1.019963
v 0.599220 1.140255 1.019963
v 0.599220 0.885293 1.019963
v 0.499907 1.140255 -1.019963
v 0.499907 0.885293 -1.019963
v 0.499907 1.140255 1.019963
v 0.499907 0.885293 1.019963
vt 0.625000 0.500000
vt 0.875000 0.500000
vt 0.875000 0.750000
vt 0.625000 0.750000
vt 0.380130 0.172890
vt 0.380130 0.170543
vt 0.391376 0.170543
vt 0.391376 0.172890
vt 0.396062 0.172811
vt 0.396062 0.167039
vt 0.405106 0.167039
vt 0.405106 0.172811
vt 0.125000 0.500000
vt 0.375000 0.500000
vt 0.375000 0.750000
vt 0.125000 0.750000
vt 0.376270 0.171282
vt 0.375616 0.170437
vt 0.391275 0.170545
vt 0.395159 0.172705
vt 0.390200 0.172791
vt 0.390200 0.170474
vt 0.392517 0.170474
vt 0.392517 0.172791
vn 0.0000 1.0000 0.0000
vn 0.0000 0.0000 1.0000
vn -1.0000 0.0000 0.0000
vn 0.0000 -1.0000 0.0000
vn 1.0000 0.0000 0.0000
vn 0.0000 0.0000 -1.0000
usemtl basically_everything
s off
f 25/73/19 29/74/19 31/75/19 27/76/19
f 28/77/20 27/78/20 31/79/20 32/80/20
f 32/81/21 31/82/21 29/83/21 30/84/21
f 30/85/22 26/86/22 28/87/22 32/88/22
f 26/89/23 25/90/23 27/91/23 28/92/23
f 30/93/24 29/94/24 25/95/24 26/96/24
o Cube.004
v 0.529248 -0.012672 1.000000
v 0.529248 1.171109 1.000000
v 0.529248 -0.012672 -1.000000
v 0.529248 1.171109 -1.000000
v 0.566467 -0.012672 1.000000
v 0.566467 1.171109 1.000000
v 0.566467 -0.012672 -1.000000
v 0.566467 1.171109 -1.000000
vt 0.375000 0.000000
vt 0.625000 0.000000
vt 0.625000 0.250000
vt 0.375000 0.250000
vt 0.625000 0.500000
vt 0.375000 0.500000
vt 0.384626 0.170333
vt 0.385651 0.166678
vt 0.389190 0.166627
vt 0.390530 0.168532
vt 0.375000 0.750000
vt 0.625000 0.750000
vt 0.625000 1.000000
vt 0.375000 1.000000
vt 0.125000 0.500000
vt 0.125000 0.750000
vt 0.875000 0.500000
vt 0.875000 0.750000
vn -1.0000 0.0000 0.0000
vn 0.0000 0.0000 -1.0000
vn 1.0000 0.0000 0.0000
vn 0.0000 0.0000 1.0000
vn 0.0000 -1.0000 0.0000
vn 0.0000 1.0000 0.0000
usemtl basically_everything
s off
f 33/97/25 34/98/25 36/99/25 35/100/25
f 35/100/26 36/99/26 40/101/26 39/102/26
f 39/103/27 40/104/27 38/105/27 37/106/27
f 37/107/28 38/108/28 34/109/28 33/110/28
f 35/111/29 39/102/29 37/107/29 33/112/29
f 40/101/30 36/113/30 34/114/30 38/108/30
o Cube.005
v -0.616269 0.256015 1.019963
v -0.616269 0.001053 1.019963
v -0.616269 0.256015 -1.019963
v -0.616269 0.001053 -1.019963
v -0.516956 0.256015 1.019963
v -0.516956 0.001053 1.019963
v -0.516956 0.256015 -1.019963
v -0.516956 0.001053 -1.019963
vt 0.625000 0.500000
vt 0.875000 0.500000
vt 0.875000 0.750000
vt 0.625000 0.750000
vt 0.380130 0.172890
vt 0.380130 0.170543
vt 0.391376 0.170543
vt 0.391376 0.172890
vt 0.396062 0.172811
vt 0.396062 0.167039
vt 0.405106 0.167039
vt 0.405106 0.172811
vt 0.125000 0.500000
vt 0.375000 0.500000
vt 0.375000 0.750000
vt 0.125000 0.750000
vt 0.375616 0.172833
vt 0.375616 0.170437
vt 0.391275 0.170545
vt 0.389006 0.171494
vt 0.390200 0.172791
vt 0.390200 0.170474
vt 0.392517 0.170474
vt 0.392517 0.172791
vn 0.0000 1.0000 0.0000
vn 0.0000 0.0000 -1.0000
vn 1.0000 0.0000 0.0000
vn 0.0000 -1.0000 0.0000
vn -1.0000 0.0000 -0.0000
vn 0.0000 0.0000 1.0000
usemtl basically_everything
s off
f 41/115/31 45/116/31 47/117/31 43/118/31
f 44/119/32 43/120/32 47/121/32 48/122/32
f 48/123/33 47/124/33 45/125/33 46/126/33
f 46/127/34 42/128/34 44/129/34 48/130/34
f 42/131/35 41/132/35 43/133/35 44/134/35
f 46/135/36 45/136/36 41/137/36 42/138/36
o Cube.006
v -0.616269 0.550422 1.019963
v -0.616269 0.295460 1.019963
v -0.616269 0.550422 -1.019963
v -0.616269 0.295460 -1.019963
v -0.516956 0.550422 1.019963
v -0.516956 0.295460 1.019963
v -0.516956 0.550422 -1.019963
v -0.516956 0.295460 -1.019963
vt 0.625000 0.500000
vt 0.875000 0.500000
vt 0.875000 0.750000
vt 0.625000 0.750000
vt 0.380130 0.172890
vt 0.380130 0.170543
vt 0.391376 0.170543
vt 0.391376 0.172890
vt 0.396062 0.172811
vt 0.399646 0.167354
vt 0.405106 0.167039
vt 0.403483 0.171479
vt 0.125000 0.500000
vt 0.375000 0.500000
vt 0.375000 0.750000
vt 0.125000 0.750000
vt 0.377869 0.171573
vt 0.375616 0.170437
vt 0.391275 0.170545
vt 0.394432 0.172729
vt 0.390200 0.172791
vt 0.390200 0.170474
vt 0.392517 0.170474
vt 0.392517 0.172791
vn 0.0000 1.0000 0.0000
vn 0.0000 0.0000 -1.0000
vn 1.0000 0.0000 0.0000
vn 0.0000 -1.0000 0.0000
vn -1.0000 0.0000 -0.0000
vn 0.0000 0.0000 1.0000
usemtl basically_everything
s off
f 49/139/37 53/140/37 55/141/37 51/142/37
f 52/143/38 51/144/38 55/145/38 56/146/38
f 56/147/39 55/148/39 53/149/39 54/150/39
f 54/151/40 50/152/40 52/153/40 56/154/40
f 50/155/41 49/156/41 51/157/41 52/158/41
f 54/159/42 53/160/42 49/161/42 50/162/42
o Cube.007
v -0.616269 0.845848 1.019963
v -0.616269 0.590886 1.019963
v -0.616269 0.845848 -1.019963
v -0.616269 0.590886 -1.019963
v -0.516956 0.845848 1.019963
v -0.516956 0.590886 1.019963
v -0.516956 0.845848 -1.019963
v -0.516956 0.590886 -1.019963
vt 0.625000 0.500000
vt 0.875000 0.500000
vt 0.875000 0.750000
vt 0.625000 0.750000
vt 0.380130 0.172890
vt 0.380130 0.170543
vt 0.391376 0.170543
vt 0.391376 0.172890
vt 0.398096 0.171648
vt 0.396062 0.167039
vt 0.405106 0.167039
vt 0.405106 0.172811
vt 0.125000 0.500000
vt 0.375000 0.500000
vt 0.375000 0.750000
vt 0.125000 0.750000
vt 0.375616 0.172833
vt 0.375616 0.170437
vt 0.391275 0.170545
vt 0.391235 0.172220
vt 0.390200 0.172791
vt 0.390200 0.170474
vt 0.392517 0.170474
vt 0.392517 0.172791
vn 0.0000 1.0000 0.0000
vn 0.0000 0.0000 -1.0000
vn 1.0000 0.0000 0.0000
vn 0.0000 -1.0000 0.0000
vn -1.0000 0.0000 -0.0000
vn 0.0000 0.0000 1.0000
usemtl basically_everything
s off
f 57/163/43 61/164/43 63/165/43 59/166/43
f 60/167/44 59/168/44 63/169/44 64/170/44
f 64/171/45 63/172/45 61/173/45 62/174/45
f 62/175/46 58/176/46 60/177/46 64/178/46
f 58/179/47 57/180/47 59/181/47 60/182/47
f 62/183/48 61/184/48 57/185/48 58/186/48
o Cube.008
v -0.616269 1.140255 1.019963
v -0.616269 0.885293 1.019963
v -0.616269 1.140255 -1.019963
v -0.616269 0.885293 -1.019963
v -0.516956 1.140255 1.019963
v -0.516956 0.885293 1.019963
v -0.516956 1.140255 -1.019963
v -0.516956 0.885293 -1.019963
vt 0.625000 0.500000
vt 0.875000 0.500000
vt 0.875000 0.750000
vt 0.625000 0.750000
vt 0.380130 0.172890
vt 0.380130 0.170543
vt 0.391376 0.170543
vt 0.391376 0.172890
vt 0.396062 0.172811
vt 0.396062 0.167039
vt 0.405106 0.167039
vt 0.405106 0.172811
vt 0.125000 0.500000
vt 0.375000 0.500000
vt 0.375000 0.750000
vt 0.125000 0.750000
vt 0.376270 0.171282
vt 0.375616 0.170437
vt 0.391275 0.170545
vt 0.395159 0.172705
vt 0.390200 0.172791
vt 0.390200 0.170474
vt 0.392517 0.170474
vt 0.392517 0.172791
vn 0.0000 1.0000 0.0000
vn 0.0000 0.0000 -1.0000
vn 1.0000 0.0000 0.0000
vn 0.0000 -1.0000 0.0000
vn -1.0000 0.0000 -0.0000
vn 0.0000 0.0000 1.0000
usemtl basically_everything
s off
f 65/187/49 69/188/49 71/189/49 67/190/49
f 68/191/50 67/192/50 71/193/50 72/194/50
f 72/195/51 71/196/51 69/197/51 70/198/51
f 70/199/52 66/200/52 68/201/52 72/202/52
f 66/203/53 65/204/53 67/205/53 68/206/53
f 70/207/54 69/208/54 65/209/54 66/210/54
o Cube.009
v -0.546297 -0.012672 -1.000000
v -0.546297 1.171109 -1.000000
v -0.546297 -0.012672 1.000000
v -0.546297 1.171109 1.000000
v -0.583516 -0.012672 -1.000000
v -0.583516 1.171109 -1.000000
v -0.583516 -0.012672 1.000000
v -0.583516 1.171109 1.000000
vt 0.375000 0.000000
vt 0.625000 0.000000
vt 0.625000 0.250000
vt 0.375000 0.250000
vt 0.625000 0.500000
vt 0.375000 0.500000
vt 0.384626 0.170333
vt 0.385651 0.166678
vt 0.389190 0.166627
vt 0.390530 0.168532
vt 0.375000 0.750000
vt 0.625000 0.750000
vt 0.625000 1.000000
vt 0.375000 1.000000
vt 0.125000 0.500000
vt 0.125000 0.750000
vt 0.875000 0.500000
vt 0.875000 0.750000
vn 1.0000 0.0000 0.0000
vn 0.0000 0.0000 1.0000
vn -1.0000 0.0000 -0.0000
vn 0.0000 0.0000 -1.0000
vn 0.0000 -1.0000 0.0000
vn 0.0000 1.0000 0.0000
usemtl basically_everything
s off
f 73/211/55 74/212/55 76/213/55 75/214/55
f 75/214/56 76/213/56 80/215/56 79/216/56
f 79/217/57 80/218/57 78/219/57 77/220/57
f 77/221/58 78/222/58 74/223/58 73/224/58
f 75/225/59 79/216/59 77/221/59 73/226/59
f 80/215/60 76/227/60 74/228/60 78/222/60
o Cube.010
v -0.594233 0.256015 -0.959747
v -0.594233 0.001053 -0.959747
v 0.595493 0.256015 -0.959747
v 0.595493 0.001053 -0.959747
v -0.594233 0.256015 -0.860435
v -0.594233 0.001053 -0.860435
v 0.595493 0.256015 -0.860435
v 0.595493 0.001053 -0.860435
vt 0.625000 0.500000
vt 0.875000 0.500000
vt 0.875000 0.750000
vt 0.625000 0.750000
vt 0.380130 0.172890
vt 0.380130 0.170543
vt 0.391376 0.170543
vt 0.391376 0.172890
vt 0.396062 0.172811
vt 0.396062 0.167039
vt 0.405106 0.167039
vt 0.405106 0.172811
vt 0.125000 0.500000
vt 0.375000 0.500000
vt 0.375000 0.750000
vt 0.125000 0.750000
vt 0.375616 0.172833
vt 0.375616 0.170437
vt 0.391275 0.170545
vt 0.389006 0.171494
vt 0.390200 0.172791
vt 0.390200 0.170474
vt 0.392517 0.170474
vt 0.392517 0.172791
vn 0.0000 1.0000 0.0000
vn 1.0000 0.0000 0.0000
vn -0.0000 0.0000 1.0000
vn 0.0000 -1.0000 0.0000
vn 0.0000 0.0000 -1.0000
vn -1.0000 0.0000 0.0000
usemtl basically_everything
s off
f 81/229/61 85/230/61 87/231/61 83/232/61
f 84/233/62 83/234/62 87/235/62 88/236/62
f 88/237/63 87/238/63 85/239/63 86/240/63
f 86/241/64 82/242/64 84/243/64 88/244/64
f 82/245/65 81/246/65 83/247/65 84/248/65
f 86/249/66 85/250/66 81/251/66 82/252/66
o Cube.011
v -0.594233 0.550423 -0.959747
v -0.594233 0.295460 -0.959747
v 0.595493 0.550423 -0.959747
v 0.595493 0.295460 -0.959747
v -0.594233 0.550423 -0.860435
v -0.594233 0.295460 -0.860435
v 0.595493 0.550423 -0.860435
v 0.595493 0.295460 -0.860435
vt 0.625000 0.500000
vt 0.875000 0.500000
vt 0.875000 0.750000
vt 0.625000 0.750000
vt 0.380130 0.172890
vt 0.380130 0.170543
vt 0.391376 0.170543
vt 0.391376 0.172890
vt 0.396062 0.172811
vt 0.399646 0.167354
vt 0.405106 0.167039
vt 0.403483 0.171479
vt 0.125000 0.500000
vt 0.375000 0.500000
vt 0.375000 0.750000
vt 0.125000 0.750000
vt 0.377869 0.171573
vt 0.375616 0.170437
vt 0.391275 0.170545
vt 0.394432 0.172729
vt 0.390200 0.172791
vt 0.390200 0.170474
vt 0.392517 0.170474
vt 0.392517 0.172791
vn 0.0000 1.0000 0.0000
vn 1.0000 0.0000 0.0000
vn -0.0000 0.0000 1.0000
vn 0.0000 -1.0000 0.0000
vn 0.0000 0.0000 -1.0000
vn -1.0000 0.0000 0.0000
usemtl basically_everything
s off
f 89/253/67 93/254/67 95/255/67 91/256/67
f 92/257/68 91/258/68 95/259/68 96/260/68
f 96/261/69 95/262/69 93/263/69 94/264/69
f 94/265/70 90/266/70 92/267/70 96/268/70
f 90/269/71 89/270/71 91/271/71 92/272/71
f 94/273/72 93/274/72 89/275/72 90/276/72
o Cube.012
v -0.594233 0.845848 -0.959747
v -0.594233 0.590886 -0.959747
v 0.595493 0.845848 -0.959747
v 0.595493 0.590886 -0.959747
v -0.594233 0.845848 -0.860435
v -0.594233 0.590886 -0.860435
v 0.595493 0.845848 -0.860435
v 0.595493 0.590886 -0.860435
vt 0.625000 0.500000
vt 0.875000 0.500000
vt 0.875000 0.750000
vt 0.625000 0.750000
vt 0.380130 0.172890
vt 0.380130 0.170543
vt 0.391376 0.170543
vt 0.391376 0.172890
vt 0.398096 0.171648
vt 0.396062 0.167039
vt 0.405106 0.167039
vt 0.405106 0.172811
vt 0.125000 0.500000
vt 0.375000 0.500000
vt 0.375000 0.750000
vt 0.125000 0.750000
vt 0.375616 0.172833
vt 0.375616 0.170437
vt 0.391275 0.170545
vt 0.391235 0.172220
vt 0.390200 0.172791
vt 0.390200 0.170474
vt 0.392517 0.170474
vt 0.392517 0.172791
vn 0.0000 1.0000 0.0000
vn 1.0000 0.0000 0.0000
vn -0.0000 0.0000 1.0000
vn 0.0000 -1.0000 0.0000
vn 0.0000 0.0000 -1.0000
vn -1.0000 0.0000 0.0000
usemtl basically_everything
s off
f 97/277/73 101/278/73 103/279/73 99/280/73
f 100/281/74 99/282/74 103/283/74 104/284/74
f 104/285/75 103/286/75 101/287/75 102/288/75
f 102/289/76 98/290/76 100/291/76 104/292/76
f 98/293/77 97/294/77 99/295/77 100/296/77
f 102/297/78 101/298/78 97/299/78 98/300/78
o Cube.013
v -0.594233 1.140255 -0.959747
v -0.594233 0.885293 -0.959747
v 0.595493 1.140255 -0.959747
v 0.595493 0.885293 -0.959747
v -0.594233 1.140255 -0.860435
v -0.594233 0.885293 -0.860435
v 0.595493 1.140255 -0.860435
v 0.595493 0.885293 -0.860435
vt 0.625000 0.500000
vt 0.875000 0.500000
vt 0.875000 0.750000
vt 0.625000 0.750000
vt 0.380130 0.172890
vt 0.380130 0.170543
vt 0.391376 0.170543
vt 0.391376 0.172890
vt 0.396062 0.172811
vt 0.396062 0.167039
vt 0.405106 0.167039
vt 0.405106 0.172811
vt 0.125000 0.500000
vt 0.375000 0.500000
vt 0.375000 0.750000
vt 0.125000 0.750000
vt 0.376270 0.171282
vt 0.375616 0.170437
vt 0.391275 0.170545
vt 0.395159 0.172705
vt 0.390200 0.172791
vt 0.390200 0.170474
vt 0.392517 0.170474
vt 0.392517 0.172791
vn 0.0000 1.0000 0.0000
vn 1.0000 0.0000 0.0000
vn -0.0000 0.0000 1.0000
vn 0.0000 -1.0000 0.0000
vn 0.0000 0.0000 -1.0000
vn -1.0000 0.0000 0.0000
usemtl basically_everything
s off
f 105/301/79 109/302/79 111/303/79 107/304/79
f 108/305/80 107/306/80 111/307/80 112/308/80
f 112/309/81 111/310/81 109/311/81 110/312/81
f 110/313/82 106/314/82 108/315/82 112/316/82
f 106/317/83 105/318/83 107/319/83 108/320/83
f 110/321/84 109/322/84 105/323/84 106/324/84
o Cube.014
v 0.583851 -0.012672 -0.889776
v 0.583851 1.171109 -0.889776
v -0.582591 -0.012672 -0.889776
v -0.582591 1.171109 -0.889776
v 0.583851 -0.012672 -0.926995
v 0.583851 1.171109 -0.926995
v -0.582591 -0.012672 -0.926995
v -0.582591 1.171109 -0.926995
vt 0.375000 0.000000
vt 0.625000 0.000000
vt 0.625000 0.250000
vt 0.375000 0.250000
vt 0.625000 0.500000
vt 0.375000 0.500000
vt 0.384626 0.170333
vt 0.385651 0.166678
vt 0.389190 0.166627
vt 0.390530 0.168532
vt 0.375000 0.750000
vt 0.625000 0.750000
vt 0.625000 1.000000
vt 0.375000 1.000000
vt 0.125000 0.500000
vt 0.125000 0.750000
vt 0.875000 0.500000
vt 0.875000 0.750000
vn -0.0000 0.0000 1.0000
vn -1.0000 0.0000 0.0000
vn 0.0000 0.0000 -1.0000
vn 1.0000 0.0000 0.0000
vn 0.0000 -1.0000 0.0000
vn 0.0000 1.0000 0.0000
usemtl basically_everything
s off
f 113/325/85 114/326/85 116/327/85 115/328/85
f 115/328/86 116/327/86 120/329/86 119/330/86
f 119/331/87 120/332/87 118/333/87 117/334/87
f 117/335/88 118/336/88 114/337/88 113/338/88
f 115/339/89 119/330/89 117/335/89 113/340/89
f 120/329/90 116/341/90 114/342/90 118/336/90
o Cube.015
v -0.594233 0.256015 0.966733
v -0.594233 0.001053 0.966733
v 0.595493 0.256015 0.966734
v 0.595493 0.001053 0.966734
v -0.594233 0.256015 0.867421
v -0.594233 0.001053 0.867421
v 0.595493 0.256015 0.867421
v 0.595493 0.001053 0.867421
vt 0.625000 0.500000
vt 0.625000 0.750000
vt 0.875000 0.750000
vt 0.875000 0.500000
vt 0.380130 0.172890
vt 0.391376 0.172890
vt 0.391376 0.170543
vt 0.380130 0.170543
vt 0.396062 0.172811
vt 0.405106 0.172811
vt 0.405106 0.167039
vt 0.396062 0.167039
vt 0.125000 0.500000
vt 0.125000 0.750000
vt 0.375000 0.750000
vt 0.375000 0.500000
vt 0.375616 0.172833
vt 0.389006 0.171494
vt 0.391275 0.170545
vt 0.375616 0.170437
vt 0.390200 0.172791
vt 0.392517 0.172791
vt 0.392517 0.170474
vt 0.390200 0.170474
vn 0.0000 1.0000 0.0000
vn 1.0000 0.0000 0.0000
vn 0.0000 0.0000 -1.0000
vn 0.0000 -1.0000 0.0000
vn -0.0000 0.0000 1.0000
vn -1.0000 0.0000 0.0000
usemtl basically_everything
s off
f 121/343/91 123/344/91 127/345/91 125/346/91
f 124/347/92 128/348/92 127/349/92 123/350/92
f 128/351/93 126/352/93 125/353/93 127/354/93
f 126/355/94 128/356/94 124/357/94 122/358/94
f 122/359/95 124/360/95 123/361/95 121/362/95
f 126/363/96 122/364/96 121/365/96 125/366/96
o Cube.016
v -0.594233 0.550423 0.966733
v -0.594233 0.295460 0.966733
v 0.595493 0.550423 0.966734
v 0.595493 0.295460 0.966734
v -0.594233 0.550423 0.867421
v -0.594233 0.295460 0.867421
v 0.595493 0.550423 0.867421
v 0.595493 0.295460 0.867421
vt 0.625000 0.500000
vt 0.625000 0.750000
vt 0.875000 0.750000
vt 0.875000 0.500000
vt 0.380130 0.172890
vt 0.391376 0.172890
vt 0.391376 0.170543
vt 0.380130 0.170543
vt 0.396062 0.172811
vt 0.403483 0.171479
vt 0.405106 0.167039
vt 0.399646 0.167354
vt 0.125000 0.500000
vt 0.125000 0.750000
vt 0.375000 0.750000
vt 0.375000 0.500000
vt 0.377869 0.171573
vt 0.394432 0.172729
vt 0.391275 0.170545
vt 0.375616 0.170437
vt 0.390200 0.172791
vt 0.392517 0.172791
vt 0.392517 0.170474
vt 0.390200 0.170474
vn 0.0000 1.0000 0.0000
vn 1.0000 0.0000 0.0000
vn 0.0000 0.0000 -1.0000
vn 0.0000 -1.0000 0.0000
vn -0.0000 0.0000 1.0000
vn -1.0000 0.0000 0.0000
usemtl basically_everything
s off
f 129/367/97 131/368/97 135/369/97 133/370/97
f 132/371/98 136/372/98 135/373/98 131/374/98
f 136/375/99 134/376/99 133/377/99 135/378/99
f 134/379/100 136/380/100 132/381/100 130/382/100
f 130/383/101 132/384/101 131/385/101 129/386/101
f 134/387/102 130/388/102 129/389/102 133/390/102
o Cube.017
v -0.594233 0.845848 0.966733
v -0.594233 0.590886 0.966733
v 0.595493 0.845848 0.966734
v 0.595493 0.590886 0.966734
v -0.594233 0.845848 0.867421
v -0.594233 0.590886 0.867421
v 0.595493 0.845848 0.867421
v 0.595493 0.590886 0.867421
vt 0.625000 0.500000
vt 0.625000 0.750000
vt 0.875000 0.750000
vt 0.875000 0.500000
vt 0.380130 0.172890
vt 0.391376 0.172890
vt 0.391376 0.170543
vt 0.380130 0.170543
vt 0.398096 0.171648
vt 0.405106 0.172811
vt 0.405106 0.167039
vt 0.396062 0.167039
vt 0.125000 0.500000
vt 0.125000 0.750000
vt 0.375000 0.750000
vt 0.375000 0.500000
vt 0.375616 0.172833
vt 0.391235 0.172220
vt 0.391275 0.170545
vt 0.375616 0.170437
vt 0.390200 0.172791
vt 0.392517 0.172791
vt 0.392517 0.170474
vt 0.390200 0.170474
vn 0.0000 1.0000 0.0000
vn 1.0000 0.0000 0.0000
vn 0.0000 0.0000 -1.0000
vn 0.0000 -1.0000 0.0000
vn -0.0000 0.0000 1.0000
vn -1.0000 0.0000 0.0000
usemtl basically_everything
s off
f 137/391/103 139/392/103 143/393/103 141/394/103
f 140/395/104 144/396/104 143/397/104 139/398/104
f 144/399/105 142/400/105 141/401/105 143/402/105
f 142/403/106 144/404/106 140/405/106 138/406/106
f 138/407/107 140/408/107 139/409/107 137/410/107
f 142/411/108 138/412/108 137/413/108 141/414/108
o Cube.018
v -0.594233 1.140255 0.966733
v -0.594233 0.885293 0.966733
v 0.595493 1.140255 0.966734
v 0.595493 0.885293 0.966734
v -0.594233 1.140255 0.867421
v -0.594233 0.885293 0.867421
v 0.595493 1.140255 0.867421
v 0.595493 0.885293 0.867421
vt 0.625000 0.500000
vt 0.625000 0.750000
vt 0.875000 0.750000
vt 0.875000 0.500000
vt 0.380130 0.172890
vt 0.391376 0.172890
vt 0.391376 0.170543
vt 0.380130 0.170543
vt 0.396062 0.172811
vt 0.405106 0.172811
vt 0.405106 0.167039
vt 0.396062 0.167039
vt 0.125000 0.500000
vt 0.125000 0.750000
vt 0.375000 0.750000
vt 0.375000 0.500000
vt 0.376270 0.171282
vt 0.395159 0.172705
vt 0.391275 0.170545
vt 0.375616 0.170437
vt 0.390200 0.172791
vt 0.392517 0.172791
vt 0.392517 0.170474
vt 0.390200 0.170474
vn 0.0000 1.0000 0.0000
vn 1.0000 0.0000 0.0000
vn 0.0000 0.0000 -1.0000
vn 0.0000 -1.0000 0.0000
vn -0.0000 0.0000 1.0000
vn -1.0000 0.0000 0.0000
usemtl basically_everything
s off
f 145/415/109 147/416/109 151/417/109 149/418/109
f 148/419/110 152/420/110 151/421/110 147/422/110
f 152/423/111 150/424/111 149/425/111 151/426/111
f 150/427/112 152/428/112 148/429/112 146/430/112
f 146/431/113 148/432/113 147/433/113 145/434/113
f 150/435/114 146/436/114 145/437/114 149/438/114
o Cube.019
v 0.583851 -0.012672 0.896762
v 0.583851 1.171109 0.896762
v -0.582591 -0.012672 0.896762
v -0.582591 1.171109 0.896762
v 0.583851 -0.012672 0.933981
v 0.583851 1.171109 0.933981
v -0.582591 -0.012672 0.933981
v -0.582591 1.171109 0.933981
vt 0.375000 0.000000
vt 0.375000 0.250000
vt 0.625000 0.250000
vt 0.625000 0.000000
vt 0.375000 0.500000
vt 0.625000 0.500000
vt 0.384626 0.170333
vt 0.390530 0.168532
vt 0.389190 0.166627
vt 0.385651 0.166678
vt 0.375000 0.750000
vt 0.375000 1.000000
vt 0.625000 1.000000
vt 0.625000 0.750000
vt 0.125000 0.500000
vt 0.125000 0.750000
vt 0.875000 0.750000
vt 0.875000 0.500000
vn 0.0000 0.0000 -1.0000
vn -1.0000 0.0000 0.0000
vn -0.0000 0.0000 1.0000
vn 1.0000 0.0000 0.0000
vn 0.0000 -1.0000 0.0000
vn 0.0000 1.0000 0.0000
usemtl basically_everything
s off
f 153/439/115 155/440/115 156/441/115 154/442/115
f 155/440/116 159/443/116 160/444/116 156/441/116
f 159/445/117 157/446/117 158/447/117 160/448/117
f 157/449/118 153/450/118 154/451/118 158/452/118
f 155/453/119 153/454/119 157/449/119 159/443/119
f 160/444/120 158/452/120 154/455/120 156/456/120
o Cube.022
v 0.579912 1.051347 -0.230333
v 0.579912 1.103786 -0.230333
v 0.579912 1.051347 -0.586941
v 0.579912 1.103786 -0.586941
v 0.632351 1.051347 -0.230333
v 0.632351 1.103786 -0.230333
v 0.632351 1.051347 -0.586941
v 0.632351 1.103786 -0.586941
vt 0.381874 0.174712
vt 0.387169 0.174712
vt 0.387169 0.180007
vt 0.381874 0.180007
vt 0.387169 0.185303
vt 0.381874 0.185303
vt 0.387169 0.190598
vt 0.381874 0.190598
vt 0.387169 0.195894
vt 0.381874 0.195894
vt 0.376578 0.185303
vt 0.376578 0.190598
vt 0.392465 0.185303
vt 0.392465 0.190598
vn -1.0000 0.0000 0.0000
vn 0.0000 0.0000 -1.0000
vn 1.0000 0.0000 0.0000
vn 0.0000 0.0000 1.0000
vn 0.0000 -1.0000 0.0000
vn 0.0000 1.0000 0.0000
usemtl basically_everything
s off
f 161/457/121 162/458/121 164/459/121 163/460/121
f 163/460/122 164/459/122 168/461/122 167/462/122
f 167/462/123 168/461/123 166/463/123 165/464/123
f 165/464/124 166/463/124 162/465/124 161/466/124
f 163/467/125 167/462/125 165/464/125 161/468/125
f 168/461/126 164/469/126 162/470/126 166/463/126
o Cube.023
v 0.579912 1.051347 -0.633664
v 0.579912 1.103786 -0.633664
v 0.579912 1.051347 -0.990272
v 0.579912 1.103786 -0.990272
v 0.632351 1.051347 -0.633664
v 0.632351 1.103786 -0.633664
v 0.632351 1.051347 -0.990272
v 0.632351 1.103786 -0.990272
vt 0.381874 0.174712
vt 0.387169 0.174712
vt 0.387169 0.180007
vt 0.381874 0.180007
vt 0.387169 0.185303
vt 0.381874 0.185303
vt 0.387169 0.190598
vt 0.381874 0.190598
vt 0.387169 0.195894
vt 0.381874 0.195894
vt 0.376578 0.185303
vt 0.376578 0.190598
vt 0.392465 0.185303
vt 0.392465 0.190598
vn -1.0000 0.0000 0.0000
vn 0.0000 0.0000 -1.0000
vn 1.0000 0.0000 0.0000
vn 0.0000 0.0000 1.0000
vn 0.0000 -1.0000 0.0000
vn 0.0000 1.0000 0.0000
usemtl basically_everything
s off
f 169/471/127 170/472/127 172/473/127 171/474/127
f 171/474/128 172/473/128 176/475/128 175/476/128
f 175/476/129 176/475/129 174/477/129 173/478/129
f 173/478/130 174/477/130 170/479/130 169/480/130
f 171/481/131 175/476/131 173/478/131 169/482/131
f 176/475/132 172/483/132 170/484/132 174/477/132
o Cube.024
v 0.579912 1.051347 0.991599
v 0.579912 1.103786 0.991599
v 0.579912 1.051347 0.634991
v 0.579912 1.103786 0.634991
v 0.632351 1.051347 0.991599
v 0.632351 1.103786 0.991599
v 0.632351 1.051347 0.634991
v 0.632351 1.103786 0.634991
vt 0.381874 0.174712
vt 0.387169 0.174712
vt 0.387169 0.180007
vt 0.381874 0.180007
vt 0.387169 0.185303
vt 0.381874 0.185303
vt 0.387169 0.190598
vt 0.381874 0.190598
vt 0.387169 0.195894
vt 0.381874 0.195894
vt 0.376578 0.185303
vt 0.376578 0.190598
vt 0.392465 0.185303
vt 0.392465 0.190598
vn -1.0000 0.0000 0.0000
vn 0.0000 0.0000 -1.0000
vn 1.0000 0.0000 0.0000
vn 0.0000 0.0000 1.0000
vn 0.0000 -1.0000 0.0000
vn 0.0000 1.0000 0.0000
usemtl basically_everything
s off
f 177/485/133 178/486/133 180/487/133 179/488/133
f 179/488/134 180/487/134 184/489/134 183/490/134
f 183/490/135 184/489/135 182/491/135 181/492/135
f 181/492/136 182/491/136 178/493/136 177/494/136
f 179/495/137 183/490/137 181/492/137 177/496/137
f 184/489/138 180/497/138 178/498/138 182/491/138
o Cube.025
v 0.579912 1.051347 0.582962
v 0.579912 1.103786 0.582962
v 0.579912 1.051347 0.226353
v 0.579912 1.103786 0.226353
v 0.632351 1.051347 0.582962
v 0.632351 1.103786 0.582962
v 0.632351 1.051347 0.226353
v 0.632351 1.103786 0.226353
vt 0.381874 0.174712
vt 0.387169 0.174712
vt 0.387169 0.180007
vt 0.381874 0.180007
vt 0.387169 0.185303
vt 0.381874 0.185303
vt 0.387169 0.190598
vt 0.381874 0.190598
vt 0.387169 0.195894
vt 0.381874 0.195894
vt 0.376578 0.185303
vt 0.376578 0.190598
vt 0.392465 0.185303
vt 0.392465 0.190598
vn -1.0000 0.0000 0.0000
vn 0.0000 0.0000 -1.0000
vn 1.0000 0.0000 0.0000
vn 0.0000 0.0000 1.0000
vn 0.0000 -1.0000 0.0000
vn 0.0000 1.0000 0.0000
usemtl basically_everything
s off
f 185/499/139 186/500/139 188/501/139 187/502/139
f 187/502/140 188/501/140 192/503/140 191/504/140
f 191/504/141 192/503/141 190/505/141 189/506/141
f 189/506/142 190/505/142 186/507/142 185/508/142
f 187/509/143 191/504/143 189/506/143 185/510/143
f 192/503/144 188/511/144 186/512/144 190/505/144
o Cube.026
v 0.579912 1.051347 0.179631
v 0.579912 1.103786 0.179631
v 0.579912 1.051347 -0.176977
v 0.579912 1.103786 -0.176977
v 0.632351 1.051347 0.179631
v 0.632351 1.103786 0.179631
v 0.632351 1.051347 -0.176977
v 0.632351 1.103786 -0.176977
vt 0.381874 0.174712
vt 0.387169 0.174712
vt 0.387169 0.180007
vt 0.381874 0.180007
vt 0.387169 0.185303
vt 0.381874 0.185303
vt 0.387169 0.190598
vt 0.381874 0.190598
vt 0.387169 0.195894
vt 0.381874 0.195894
vt 0.376578 0.185303
vt 0.376578 0.190598
vt 0.392465 0.185303
vt 0.392465 0.190598
vn -1.0000 0.0000 0.0000
vn 0.0000 0.0000 -1.0000
vn 1.0000 0.0000 0.0000
vn 0.0000 0.0000 1.0000
vn 0.0000 -1.0000 0.0000
vn 0.0000 1.0000 0.0000
usemtl basically_everything
s off
f 193/513/145 194/514/145 196/515/145 195/516/145
f 195/516/146 196/515/146 200/517/146 199/518/146
f 199/518/147 200/517/147 198/519/147 197/520/147
f 197/520/148 198/519/148 194/521/148 193/522/148
f 195/523/149 199/518/149 197/520/149 193/524/149
f 200/517/150 196/525/150 194/526/150 198/519/150
o Plane.001
v -0.641235 1.033046 1.030414
v -0.641235 0.107906 1.030414
v -0.642157 1.033046 -1.015672
v -0.642156 0.107906 -1.015672
v -0.496112 1.033046 1.032043
v -0.496111 0.107906 1.032043
v -0.489235 1.033046 0.970865
v -0.489235 0.107906 0.970865
v 0.476640 1.033046 0.975047
v 0.476640 0.107906 0.975047
vt 0.396030 0.125312
vt 0.396030 0.138104
vt 0.375182 0.138104
vt 0.375182 0.125312
vt 0.397874 0.125315
vt 0.397874 0.138073
vt 0.397883 0.138181
vt 0.397883 0.125247
vt 0.398821 0.125247
vt 0.398821 0.138181
vt 0.398812 0.125129
vt 0.405371 0.125129
vt 0.405371 0.138184
vn 1.0000 0.0000 -0.0005
vn 0.0112 0.0000 -0.9999
vn -0.9937 -0.0000 -0.1117
vn 0.0043 0.0000 -1.0000
usemtl basically_everything
s off
f 201/527/151 202/528/151 204/529/151 203/530/151
f 202/528/152 201/527/152 205/531/152 206/532/152
f 206/533/153 205/534/153 207/535/153 208/536/153
f 208/536/154 207/537/154 209/538/154 210/539/154
o Plane.002
v 0.613262 1.033046 0.908085
v 0.613262 0.107906 0.908085
v 0.088838 1.033782 -0.955412
v 0.088838 0.108641 -0.955412
v 0.613262 1.033046 -1.038642
v 0.613262 0.107906 -1.038642
vt 0.385988 0.135692
vt 0.391783 0.125216
vt 0.397308 0.125129
vt 0.388297 0.137878
vt 0.379288 0.129352
vt 0.375751 0.125469
vn -0.1567 -0.0000 -0.9876
vn 1.0000 0.0000 -0.0000
usemtl basically_everything
s off
f 215/540/155 216/541/155 214/542/155 213/543/155
f 211/544/156 212/545/156 216/541/156 215/540/156
o cross_1_Plane.003
v -0.627249 0.016464 -0.522223
v -0.627249 0.016464 0.522223
v -0.627249 1.060910 -0.522223
v -0.627249 1.060910 0.522223
vt 0.375577 0.138280
vt 0.403751 0.138280
vt 0.403751 0.166454
vt 0.375577 0.166454
vn -1.0000 0.0000 0.0000
usemtl basically_everything
s off
f 217/546/157 218/547/157 220/548/157 219/549/157
o Plane.007
v -0.597000 0.000000 0.956481
v 0.602502 0.000000 0.956481
v -0.597000 0.000000 -0.939974
v 0.602502 0.000000 -0.939974
vt 0.386687 0.166453
vt 0.376546 0.166453
vt 0.376546 0.156312
vt 0.386687 0.156312
vn 0.0000 1.0000 0.0000
usemtl basically_everything
s off
f 221/550/158 222/551/158 224/552/158 223/553/158
o cross_2_Plane
v 0.000555 1.970428 0.451224
v 0.571916 1.271887 0.451224
v 0.000555 1.970428 -0.451224
v 0.571916 1.271887 -0.451224
vt 0.375577 0.138280
vt 0.403751 0.138280
vt 0.403751 0.166454
vt 0.375577 0.166454
vn 0.7741 0.6331 0.0000
usemtl basically_everything
s off
f 225/554/159 226/555/159 228/556/159 227/557/159
o Cube.020
v -0.109067 2.080412 1.014035
v -0.213498 2.208088 0.956838
v -0.197886 2.007764 1.217379
v -0.209979 1.997873 0.956838
v -0.302317 2.135440 0.956838
v -0.213498 2.208088 -0.956838
v -0.109068 2.080412 -1.015826
v -0.209979 1.997873 -0.956838
v -0.197886 2.007764 -1.217379
v -0.302317 2.135440 -0.956838
v 0.655370 1.145817 0.956838
v 0.657976 1.142631 1.014034
v 0.542023 1.078482 0.956838
v 0.569157 1.069983 1.217379
v 0.566551 1.073169 0.956838
v 0.657976 1.142631 -1.015826
v 0.655369 1.145818 -0.956838
v 0.542023 1.078482 -0.956838
v 0.566550 1.073169 -0.956838
v 0.569157 1.069983 -1.217379
v -0.097323 2.087567 0.953841
v -0.071300 2.161122 1.017750
v -0.097323 2.087567 -0.953841
v -0.071300 2.161122 -1.017750
v 0.599015 1.236229 0.953841
v 0.744573 1.163642 1.017750
v 0.599015 1.236230 -0.953841
v 0.744572 1.163643 -1.017750
v 0.579318 1.220118 0.581698
v -0.117020 2.071455 0.581698
v 0.579318 1.220118 0.184148
v -0.117020 2.071455 0.184148
v 0.579317 1.220118 -0.215414
v -0.117020 2.071455 -0.215414
v 0.579317 1.220118 -0.592308
v -0.117020 2.071455 -0.592308
v -0.097323 2.087567 0.550005
v 0.599015 1.236229 0.550005
v -0.097323 2.087567 0.626425
v 0.599015 1.236229 0.626425
v -0.097323 2.087567 0.218849
v 0.599015 1.236229 0.218849
v -0.097323 2.087567 0.140837
v 0.599015 1.236229 0.140837
v -0.097323 2.087567 -0.198279
v 0.599015 1.236229 -0.198279
v 0.599015 1.236229 -0.241266
v -0.097323 2.087567 -0.241266
v 0.599015 1.236230 -0.618592
v -0.097323 2.087567 -0.618592
v 0.599015 1.236230 -0.554908
v -0.097323 2.087567 -0.554908
v -0.302317 2.135440 -0.190581
v -0.302317 2.135440 0.227344
v -0.241538 2.185153 -0.155201
v -0.241538 2.185153 0.189752
v -0.281137 2.109546 -0.157412
v -0.281137 2.109546 0.187541
v -0.232340 2.149459 -0.129772
v -0.232340 2.149459 0.157689
vt 0.029352 0.471364
vt 0.029352 0.288478
vt 0.216742 0.288478
vt 0.216742 0.471364
vt 0.029352 0.283362
vt 0.029352 0.470751
vt 0.216742 0.470751
vt 0.216742 0.283362
vt 0.217570 0.283362
vt 0.217570 0.470751
vt 0.036266 0.470751
vt 0.036266 0.283362
vt 0.029352 0.287052
vt 0.029352 0.469694
vt 0.216742 0.469694
vt 0.216742 0.396562
vt 0.129274 0.393186
vt 0.129274 0.360263
vt 0.216742 0.356675
vt 0.216742 0.287052
vt 0.029352 0.469230
vt 0.029352 0.283179
vt 0.216742 0.283179
vt 0.216742 0.469230
vt 0.197586 0.296014
vt 0.197586 0.313335
vt 0.040765 0.313334
vt 0.040765 0.296014
vt 0.216742 0.262186
vt 0.242254 0.287052
vt 0.022753 0.476716
vt 0.028524 0.496264
vt 0.003840 0.470751
vt 0.242254 0.469694
vt 0.216742 0.494561
vt 0.028814 0.476716
vt 0.028814 0.277397
vt 0.242254 0.471364
vt 0.216742 0.496264
vt 0.242254 0.283179
vt 0.216742 0.257849
vt 0.215598 0.476716
vt 0.234511 0.470751
vt 0.209827 0.496264
vt 0.216742 0.360474
vt 0.216742 0.393397
vt 0.215598 0.277397
vt 0.209827 0.257849
vt 0.234511 0.283362
vt 0.242254 0.469230
vt 0.022753 0.277397
vt 0.003840 0.283362
vt 0.028524 0.257849
vt 0.022753 0.274415
vt 0.215598 0.274415
vt 0.242254 0.288478
vt 0.215598 0.479698
vt 0.022753 0.479698
vt 0.218484 0.277397
vt 0.218484 0.476716
vt 0.197586 0.458099
vt 0.197586 0.433850
vt 0.197586 0.430538
vt 0.197586 0.426982
vt 0.197586 0.389832
vt 0.197586 0.385939
vt 0.197586 0.381408
vt 0.197586 0.345937
vt 0.197586 0.344145
vt 0.197586 0.342125
vt 0.197586 0.317615
vt 0.197586 0.314692
vt 0.040765 0.458099
vt 0.040765 0.314692
vt 0.040765 0.317615
vt 0.040765 0.342125
vt 0.040765 0.344145
vt 0.040765 0.345937
vt 0.040765 0.381408
vt 0.040765 0.385939
vt 0.040765 0.389832
vt 0.040765 0.426982
vt 0.040765 0.430538
vt 0.040765 0.433850
vt 0.154552 0.390759
vt 0.154552 0.363323
vn 0.6741 0.5514 0.4914
vn 0.6331 -0.7741 -0.0000
vn -0.7741 -0.6331 0.0000
vn -0.6331 0.7741 -0.0000
vn 0.6727 0.5502 -0.4947
vn 0.7741 0.6331 -0.0000
vn -0.8288 -0.5563 0.0596
vn 0.2379 -0.9691 -0.0648
vn -0.8288 -0.5563 -0.0596
vn 0.1960 -0.9806 -0.0000
vn -0.2117 -0.9773 -0.0098
vn -0.2117 -0.9773 0.0098
vn -0.3559 0.1239 0.9263
vn 0.0462 0.7932 0.6071
vn -0.8325 -0.5540 0.0000
vn 0.0404 0.7933 -0.6075
vn -0.3499 0.1417 -0.9260
vn -0.7727 -0.6320 -0.0599
vn 0.6152 -0.7879 0.0258
vn 0.2366 -0.9696 0.0628
vn -0.2117 -0.9773 -0.0000
vn 0.6150 -0.7881 -0.0259
vn -0.0185 -0.0152 -0.9997
vn -0.7727 -0.6320 0.0599
vn -0.0358 -0.0292 0.9989
vn 0.9390 -0.3439 -0.0000
vn 0.5355 0.4380 0.7221
vn 0.4378 0.8991 0.0000
vn 0.5355 0.4380 -0.7221
vn 0.3136 0.9495 0.0000
vn 0.6728 0.5503 -0.4945
vn 0.6242 0.5106 -0.5914
vn 0.4323 0.3536 -0.8295
vn 0.6400 0.5234 -0.5626
vn 0.6036 0.4937 0.6261
vn 0.6674 0.5459 0.5066
vn 0.5516 0.4512 0.7015
vn 0.5561 0.4549 0.6956
vn -0.9998 -0.0201 0.0000
usemtl basically_everything
s off
f 240/558/160 229/559/160 231/560/160 242/561/160
f 245/562/161 239/563/161 243/564/161 247/565/161
f 246/566/162 241/567/162 232/568/162 236/569/162
f 230/570/163 234/571/163 238/572/163 281/573/163 283/574/163 284/575/163 282/576/163 233/577/163
f 235/578/164 244/579/164 248/580/164 237/581/164
f 251/582/165 278/583/165 277/584/165 255/585/165
f 231/586/166 233/577/166 232/587/166
f 254/588/167 240/589/167 239/590/167
f 236/591/168 238/572/168 237/592/168
f 254/593/169 239/563/169 245/562/169 256/594/169
f 241/595/170 243/596/170 242/561/170
f 246/597/171 248/580/171 247/598/171
f 250/599/172 230/600/172 229/601/172
f 229/559/173 230/570/173 233/577/173 231/560/173
f 232/587/174 233/577/174 282/576/174 286/602/174 285/603/174 281/573/174 238/572/174 236/591/174
f 237/581/175 238/572/175 234/571/175 235/578/175
f 252/604/176 235/605/176 234/606/176
f 236/607/177 237/581/177 248/580/177 246/597/177
f 247/565/178 248/580/178 244/579/178 245/562/178
f 256/608/179 245/609/179 244/610/179
f 246/566/180 247/565/180 243/564/180 241/567/180
f 242/561/181 243/564/181 239/563/181 240/558/181
f 256/611/182 244/610/182 235/605/182 252/612/182
f 241/595/183 242/561/183 231/560/183 232/613/183
f 250/614/184 229/601/184 240/589/184 254/615/184
f 251/582/185 252/616/185 250/617/185 249/618/185 267/619/185 258/620/185 265/621/185 269/622/185 260/623/185 271/624/185 273/625/185 262/626/185 276/627/185 280/628/185 264/629/185 278/583/185
f 255/585/186 256/611/186 252/612/186 251/582/186
f 253/630/187 254/593/187 256/594/187 255/585/187 277/584/187 263/631/187 279/632/187 275/633/187 261/634/187 274/635/187 272/636/187 259/637/187 270/638/187 266/639/187 257/640/187 268/641/187
f 249/618/188 250/614/188 254/615/188 253/630/188
f 252/616/189 234/606/189 230/600/189 250/617/189
f 258/620/190 267/619/190 268/641/190 257/640/190
f 260/623/191 269/622/191 270/638/191 259/637/191
f 262/626/192 273/625/192 274/635/192 261/634/192
f 264/629/193 280/628/193 279/632/193 263/631/193
f 265/621/194 258/620/194 257/640/194 266/639/194
f 267/619/165 249/618/165 253/630/165 268/641/165
f 269/622/165 265/621/165 266/639/165 270/638/165
f 271/624/195 260/623/195 259/637/195 272/636/195
f 273/625/165 271/624/165 272/636/165 274/635/165
f 276/627/196 262/626/196 261/634/196 275/633/196
f 278/583/197 264/629/197 263/631/197 277/584/197
f 280/628/165 276/627/165 275/633/165 279/632/165
f 281/573/198 285/603/198 287/642/198 288/643/198 286/602/198 282/576/198 284/575/198 283/574/198
f 285/603/163 286/602/163 288/643/163 287/642/163
o Plane.004
v 0.220406 1.763327 0.970149
v 0.621544 1.272899 0.970149
v 0.220406 1.763327 0.244754
v 0.621544 1.272899 0.244754
vt 0.377043 0.125163
vt 0.398281 0.125124
vt 0.389707 0.134558
vt 0.383733 0.133520
vn 0.7741 0.6331 -0.0000
usemtl basically_everything
s off
f 289/644/199 290/645/199 292/646/199 291/647/199
o Plane.005
v -0.032505 2.072534 -0.182028
v 0.368633 1.582105 -0.182028
v -0.032505 2.072534 -0.907423
v 0.368633 1.582105 -0.907423
vt 0.377043 0.125163
vt 0.398281 0.125124
vt 0.387043 0.137756
vt 0.377436 0.138074
vn 0.7741 0.6331 0.0000
usemtl basically_everything
s off
f 293/648/200 294/649/200 296/650/200 295/651/200
o Plane.006
v 0.073368 1.654308 -1.043261
v 0.275777 1.723983 -0.716305
v 0.526410 1.098332 -1.042827
v 0.731243 1.167134 -0.809404
v 0.251435 1.753743 -1.018214
v 0.706901 1.196894 -1.029497
v 0.658460 1.162537 -1.019783
v 0.199213 1.724009 -1.026074
v 0.537699 1.104769 -1.227658
v 0.081901 1.660412 -1.229521
vt 0.387662 0.125143
vt 0.398281 0.125124
vt 0.387043 0.137756
vt 0.382239 0.137915
vt 0.382353 0.125153
vt 0.379838 0.137994
vt 0.378008 0.125161
vt 0.377872 0.138059
vt 0.377043 0.125163
vt 0.377436 0.138074
vn 0.7741 0.6331 0.0000
vn -0.0140 -0.0070 -0.9999
vn 0.6549 0.5325 -0.5362
vn -0.7726 -0.6318 -0.0626
usemtl basically_everything
s off
f 301/652/201 298/653/201 300/654/201 302/655/201
f 304/656/202 301/652/202 302/655/202 303/657/202
f 306/658/203 304/656/203 303/657/203 305/659/203
f 297/660/204 306/658/204 305/659/204 299/661/204
